<svg xmlns="http://www.w3.org/2000/svg" viewBox="0 0 980 315"><defs><style>.cls-1,.cls-2,.cls-3,.cls-4,.cls-5,.cls-6,.cls-7{fill:none;}.cls-1{stroke:#333;stroke-width:0.5px;}.cls-1,.cls-2,.cls-3,.cls-4,.cls-5,.cls-6{stroke-miterlimit:10;}.cls-2,.cls-5{stroke:#00a0e9;}.cls-2{stroke-width:0.21px;}.cls-3,.cls-4{stroke:#e4007f;}.cls-3{stroke-width:0.42px;}.cls-4{stroke-width:0.65px;}.cls-5{stroke-width:0.32px;}.cls-6{stroke:#cacaca;stroke-width:0.25px;}</style></defs><title>l-visual--background</title><g id="メインイメージ"><rect class="cls-1" x="510.95" y="23.83" width="23.6" height="23.6" transform="translate(52.22 266.15) rotate(-30)"/><rect class="cls-1" x="503.65" y="23.83" width="38.2" height="23.6" transform="translate(52.22 266.15) rotate(-30)"/><rect class="cls-1" x="538.5" y="15.83" width="11.8" height="14.6" transform="translate(61.37 275.3) rotate(-30)"/><rect class="cls-1" x="495.2" y="40.83" width="11.8" height="14.6" transform="translate(43.07 257) rotate(-30)"/><rect class="cls-1" x="540.75" y="36.38" width="1.13" height="5.6" transform="translate(778.03 527.57) rotate(-120)"/><rect class="cls-1" x="515.98" y="50.68" width="1.13" height="5.6" transform="translate(728.5 527.57) rotate(-120)"/><rect class="cls-1" x="696.35" y="44.96" width="23.6" height="23.6" transform="translate(66.5 361.68) rotate(-30)"/><rect class="cls-1" x="711.8" y="64.42" width="23.6" height="38.2" transform="translate(55.19 372.99) rotate(-30)"/><rect class="cls-1" x="708.22" y="66.58" width="14.6" height="5.9" transform="translate(61.1 367.08) rotate(-30)"/><rect class="cls-1" x="712.7" y="71.28" width="14.6" height="12" transform="translate(57.82 370.35) rotate(-30)"/><rect class="cls-1" x="719.1" y="82.27" width="9" height="2.5" transform="translate(55.19 372.99) rotate(-30)"/><rect class="cls-1" x="721.42" y="83.54" width="14.6" height="17.7" transform="translate(51.43 376.74) rotate(-30)"/><rect class="cls-1" x="730.9" y="99.46" width="9" height="9" transform="translate(46.55 381.63) rotate(-30)"/><rect class="cls-1" x="730.32" y="99.61" width="9" height="6.7" transform="translate(46.97 381.21) rotate(-30)"/><rect class="cls-1" x="723.65" y="99.44" width="23.6" height="9.2" transform="translate(46.51 381.66) rotate(-30)"/><rect class="cls-1" x="705.18" y="74.51" width="1.12" height="5.6" transform="translate(55.89 363.23) rotate(-30)"/><polygon class="cls-1" points="729.43 112.68 739.18 129.56 735.28 131.81 739.78 139.61 743.68 137.36 747.58 135.11 760.22 127.81 745.97 103.13 729.43 112.68"/><rect class="cls-1" x="566.45" y="119.96" width="23.6" height="23.6" transform="translate(11.59 306.78) rotate(-30)"/><rect class="cls-1" x="597.28" y="185.86" width="19.1" height="29" transform="translate(-18.88 330.26) rotate(-30)"/><rect class="cls-1" x="610.85" y="144.77" width="9" height="2.5" transform="translate(9.43 327.24) rotate(-30)"/><rect class="cls-1" x="567.57" y="169.81" width="9" height="2.5" transform="translate(-8.89 308.95) rotate(-30)"/><rect class="cls-1" x="571.27" y="171.04" width="11.8" height="17.7" transform="translate(-12.62 312.69) rotate(-30)"/><rect class="cls-1" x="614.57" y="146.04" width="11.8" height="17.7" transform="translate(5.68 330.99) rotate(-30)"/><polygon class="cls-1" points="560.34 162.54 566.24 172.75 576.46 166.85 570.55 156.64 567.61 151.53 560.34 162.54"/><polygon class="cls-1" points="600.69 132.43 603.64 137.54 609.54 147.75 619.76 141.85 613.86 131.64 600.69 132.43"/><polygon class="cls-1" points="621 164.81 624.94 171.63 626.47 172.04 631.35 169.23 632.17 166.15 628.79 160.31 621 164.81"/><polygon class="cls-1" points="577.7 189.81 581.07 195.65 584.15 196.48 589.02 193.66 589.43 192.13 585.49 185.31 577.7 189.81"/><rect class="cls-1" x="613.82" y="176.31" width="19.1" height="29" transform="translate(-11.89 337.25) rotate(-30)"/><rect class="cls-1" x="586.45" y="174.44" width="38.2" height="9.2" transform="translate(-8.39 326.76) rotate(-30)"/><rect class="cls-1" x="618.77" y="194.78" width="19.1" height="9.2" transform="translate(-15.51 340.87) rotate(-30)"/><rect class="cls-1" x="602.23" y="204.33" width="19.1" height="9.2" transform="translate(-22.5 333.88) rotate(-30)"/><rect class="cls-1" x="571.36" y="150.48" width="5.6" height="5.6" rx="2.8" ry="2.8" transform="translate(0.28 307.62) rotate(-30)"/><rect class="cls-1" x="596.13" y="136.18" width="5.6" height="5.6" rx="2.8" ry="2.8" transform="translate(10.75 318.09) rotate(-30)"/><line class="cls-1" x1="600.28" y1="139.35" x2="597.58" y2="138.62"/><line class="cls-1" x1="598.57" y1="140.34" x2="599.29" y2="137.63"/><line class="cls-1" x1="575.51" y1="153.65" x2="572.81" y2="152.92"/><line class="cls-1" x1="573.8" y1="154.64" x2="574.52" y2="151.93"/><rect class="cls-1" x="574.6" y="139.42" width="38.2" height="38.2" transform="translate(0.28 318.09) rotate(-30)"/><line class="cls-2" x1="744.25" y1="481.28" x2="321.75" y2="-250.51"/><line class="cls-2" x1="754.64" y1="475.28" x2="332.14" y2="-256.51"/><line class="cls-2" x1="756.37" y1="474.28" x2="333.87" y2="-257.51"/><line class="cls-2" x1="760.7" y1="471.78" x2="338.2" y2="-260.01"/><line class="cls-2" x1="761.57" y1="471.28" x2="339.07" y2="-260.51"/><line class="cls-2" x1="780.62" y1="460.28" x2="358.12" y2="-271.51"/><line class="cls-2" x1="781.49" y1="459.78" x2="358.99" y2="-272.01"/><line class="cls-2" x1="785.82" y1="457.28" x2="363.32" y2="-274.51"/><line class="cls-2" x1="787.55" y1="456.28" x2="365.05" y2="-275.51"/><line class="cls-2" x1="797.94" y1="450.28" x2="375.44" y2="-281.51"/><line class="cls-2" x1="889.74" y1="397.28" x2="467.24" y2="-334.51"/><line class="cls-3" x1="836.05" y1="428.28" x2="413.55" y2="-303.51"/><line class="cls-4" x1="1555.78" y1="-475.11" x2="-176.28" y2="524.89"/><line class="cls-2" x1="890.61" y1="396.78" x2="468.11" y2="-335.01"/><line class="cls-2" x1="894.94" y1="394.28" x2="472.44" y2="-337.51"/><line class="cls-2" x1="911.39" y1="384.78" x2="488.89" y2="-347.01"/><line class="cls-5" x1="1580.28" y1="-432.68" x2="-151.78" y2="567.32"/><line class="cls-5" x1="1568.28" y1="-453.46" x2="-163.78" y2="546.54"/><line class="cls-5" x1="1581.28" y1="-430.95" x2="-150.78" y2="569.05"/><line class="cls-5" x1="1582.78" y1="-428.35" x2="-149.28" y2="571.65"/><line class="cls-5" x1="1583.78" y1="-426.62" x2="-148.28" y2="573.38"/><line class="cls-5" x1="1588.78" y1="-417.95" x2="-143.28" y2="582.05"/><line class="cls-5" x1="1590.28" y1="-415.36" x2="-141.78" y2="584.64"/><line class="cls-5" x1="1599.28" y1="-399.77" x2="-132.78" y2="600.23"/><line class="cls-5" x1="1602.28" y1="-394.57" x2="-129.78" y2="605.43"/><line class="cls-5" x1="1603.78" y1="-391.97" x2="-128.28" y2="608.03"/><line class="cls-5" x1="1613.78" y1="-374.65" x2="-118.28" y2="625.35"/><line class="cls-5" x1="1618.28" y1="-366.86" x2="-113.78" y2="633.14"/><line class="cls-5" x1="1512.78" y1="-549.59" x2="-219.28" y2="450.41"/><line class="cls-5" x1="1524.78" y1="-528.81" x2="-207.28" y2="471.19"/><line class="cls-5" x1="1525.28" y1="-527.94" x2="-206.78" y2="472.06"/><line class="cls-6" x1="599.85" y1="169.17" x2="594.85" y2="160.51"/><line class="cls-6" x1="601.68" y1="162.34" x2="593.02" y2="167.34"/><line class="cls-6" x1="525.35" y1="40.13" x2="520.35" y2="31.47"/><line class="cls-6" x1="527.18" y1="33.3" x2="518.52" y2="38.3"/><line class="cls-6" x1="729.75" y1="94.17" x2="724.75" y2="85.51"/><line class="cls-6" x1="731.58" y1="87.34" x2="722.92" y2="92.34"/><rect id="_100_" data-name="100%" class="cls-7" width="980" height="315"/></g></svg>