<svg xmlns="http://www.w3.org/2000/svg" viewBox="0 0 112 42.5"><defs><style>.cls-1{fill:#333;}.cls-2{fill:none;}</style></defs><title>c-header__logo--small</title><g id="レイヤー_2" data-name="レイヤー 2"><g id="tutorialページ"><g id="header"><g id="name-design"><g id="bottom"><path class="cls-1" d="M19.78,23.91l10.67,6.16L19.78,36.23,9.11,30.07l10.67-6.16m0-.87-12.17,7,12.17,7,12.17-7L19.78,23Z"/></g><g id="back-right"><path class="cls-1" d="M20.45,10.36l10.66,6.16V28.84L20.53,22.68l-.08-12.32m-.76-1.3.09,14.06,12.08,7V16.08l-12.17-7Z"/></g><g id="back-left"><path class="cls-1" d="M19.12,10.36l0,12.23L8.46,28.83V16.52l10.67-6.16m.75-1.3-12.17,7V30.14L19.83,23l0-14Z"/></g><g id="flont-right"><path class="cls-1" d="M5.54,17.41,16.2,23.57V35.89L5.62,29.73,5.54,17.41m-.76-1.3.09,14.06,12.08,7V23.14l-12.17-7Z"/></g><g id="flont--left"><path class="cls-1" d="M34,17.41V29.73L23.36,35.89V23.57L34,17.41m.75-1.3-12.17,7V37.19l12.17-7V16.11Z"/></g><g id="top"><path class="cls-1" d="M19.78,6.17l10.67,6.16L19.78,18.5,9.11,12.33,19.78,6.17m0-.87-12.17,7,12.17,7,12.17-7-12.17-7Z"/></g></g><path class="cls-1" d="M52.47,16.67v8c0,2.11-.13,6.37-5.85,6.37s-5.83-4.27-5.83-6.35v-8H42v8c0,2.14.14,5.35,4.66,5.35s4.68-3.24,4.68-5.35v-8Z"/><path class="cls-1" d="M55.05,30.75V20.23h1.12v1.53a3.91,3.91,0,0,1,3.38-1.82,3.44,3.44,0,0,1,3.15,1.62,6.11,6.11,0,0,1,.49,3.17v6H62.07V24.86c0-1.76,0-3.91-2.63-3.91a3.19,3.19,0,0,0-2.79,1.49,4.26,4.26,0,0,0-.49,2.41v5.89Z"/><path class="cls-1" d="M67.12,18.24H65.66V16.67h1.46ZM67,30.75H65.82V20.23H67Z"/><path class="cls-1" d="M74.15,19.95c2.88,0,5.15,2.16,5.15,5.54S77,31,74.17,31,69,28.91,69,25.49,71.31,19.95,74.15,19.95Zm0,10.08c1.85,0,4-1.26,4-4.54S76,21,74.15,21s-4,1.24-4,4.54S72.3,30,74.17,30Z"/><path class="cls-1" d="M81.31,30.75V20.23h1.12v1.53a3.91,3.91,0,0,1,3.38-1.82A3.44,3.44,0,0,1,89,21.57a6.11,6.11,0,0,1,.49,3.17v6H88.33V24.86c0-1.76,0-3.91-2.63-3.91a3.19,3.19,0,0,0-2.79,1.49,4.26,4.26,0,0,0-.49,2.41v5.89Z"/><path class="cls-1" d="M93.84,28.75v2H91.93v-2Z"/><path class="cls-1" d="M98.16,32.44c0,.88,0,3.1-2.54,3.1A3.87,3.87,0,0,1,94,35.15l.13-1a3.91,3.91,0,0,0,1.58.38C97,34.53,97,33.41,97,32.64V20.23h1.15Zm.14-14.2H96.84V16.67H98.3Z"/><path class="cls-1" d="M106.19,21.49A4.7,4.7,0,0,0,104,21c-1.42,0-2.52.61-2.52,1.87s.61,1.51,2.79,2.16c1.57.47,3,1.12,3,3,0,2-1.84,3.06-4.09,3.06a7.18,7.18,0,0,1-3.24-.74l.38-1a6.08,6.08,0,0,0,2.88.72c1.58,0,2.93-.58,2.93-2.05s-1-1.69-2.86-2.27c-1.49-.47-2.86-1-2.86-2.83S102,19.95,104,19.95a5.55,5.55,0,0,1,2.47.56Z"/><rect class="cls-2" width="112" height="42.5"/></g></g></g></svg>