<svg xmlns="http://www.w3.org/2000/svg" viewBox="0 0 64 64"><defs><style>.cls-1{fill:none;}.cls-2{fill:#333;}</style></defs><title>c-icon--setting</title><g id="レイヤー_2" data-name="レイヤー 2"><g id="c-icon--setting"><rect class="cls-1" width="64" height="64"/><path class="cls-2" d="M32,5a26.92,26.92,0,0,1,2.92.16h0A67.82,67.82,0,0,0,36.41,12l.16.53.54.14a19.87,19.87,0,0,1,5,2.07l.48.28.49-.26A63.4,63.4,0,0,0,49,11a27.16,27.16,0,0,1,4,4,63.4,63.4,0,0,0-3.76,5.92l-.26.49.28.48a19.87,19.87,0,0,1,2.07,5l.14.54.53.16a67.82,67.82,0,0,0,6.84,1.49h0a26.16,26.16,0,0,1,0,5.84h0A67.82,67.82,0,0,0,52,36.41l-.53.16-.14.54a19.87,19.87,0,0,1-2.07,5l-.28.48.26.49A63.41,63.41,0,0,0,53,49a27.16,27.16,0,0,1-4,4,63.4,63.4,0,0,0-5.92-3.76L42.57,49l-.48.28a19.86,19.86,0,0,1-5,2.07l-.54.14-.16.53a67.81,67.81,0,0,0-1.49,6.84h0a26.16,26.16,0,0,1-5.84,0h0A67.8,67.8,0,0,0,27.59,52l-.16-.53-.54-.14a19.87,19.87,0,0,1-5-2.07L21.43,49l-.49.26A63.4,63.4,0,0,0,15,53a27.16,27.16,0,0,1-4-4,63.38,63.38,0,0,0,3.76-5.92l.26-.49-.28-.48a19.86,19.86,0,0,1-2.07-5l-.14-.54L12,36.41a67.82,67.82,0,0,0-6.84-1.49h0a26.17,26.17,0,0,1,0-5.84h0A67.81,67.81,0,0,0,12,27.59l.53-.16.14-.54a19.87,19.87,0,0,1,2.07-5l.28-.48-.26-.49A63.4,63.4,0,0,0,11,15a27.16,27.16,0,0,1,4-4,63.38,63.38,0,0,0,5.92,3.76l.49.26.48-.28a19.87,19.87,0,0,1,5-2.07l.54-.14.16-.53a67.82,67.82,0,0,0,1.49-6.84h0A26.92,26.92,0,0,1,32,5m0,40A13,13,0,1,0,19,32,13,13,0,0,0,32,45M32,4a28.22,28.22,0,0,0-3.77.26,75.68,75.68,0,0,1-1.6,7.46,20.84,20.84,0,0,0-5.24,2.18A70.25,70.25,0,0,1,15,9.78,28.16,28.16,0,0,0,9.78,15a70.27,70.27,0,0,1,4.12,6.43,20.84,20.84,0,0,0-2.18,5.24,75.68,75.68,0,0,1-7.46,1.6,27.48,27.48,0,0,0,0,7.54,75.69,75.69,0,0,1,7.46,1.6,20.84,20.84,0,0,0,2.18,5.24A70.25,70.25,0,0,1,9.78,49,28.15,28.15,0,0,0,15,54.22a70.27,70.27,0,0,1,6.43-4.12,20.84,20.84,0,0,0,5.24,2.18,75.66,75.66,0,0,1,1.6,7.46,27.48,27.48,0,0,0,7.54,0,75.69,75.69,0,0,1,1.6-7.46,20.84,20.84,0,0,0,5.24-2.18A70.27,70.27,0,0,1,49,54.22,28.15,28.15,0,0,0,54.22,49a70.27,70.27,0,0,1-4.12-6.43,20.84,20.84,0,0,0,2.18-5.24,75.69,75.69,0,0,1,7.46-1.6,27.48,27.48,0,0,0,0-7.54,75.69,75.69,0,0,1-7.46-1.6,20.84,20.84,0,0,0-2.18-5.24A70.27,70.27,0,0,1,54.22,15,28.16,28.16,0,0,0,49,9.78a70.27,70.27,0,0,1-6.43,4.12,20.84,20.84,0,0,0-5.24-2.18,75.68,75.68,0,0,1-1.6-7.46A28.22,28.22,0,0,0,32,4Zm0,40A12,12,0,1,1,44,32,12,12,0,0,1,32,44Z"/></g></g></svg>