<svg xmlns="http://www.w3.org/2000/svg" viewBox="0 0 64 64"><defs><style>.cls-1{fill:none;}.cls-2{fill:#333;}</style></defs><title>c-icon--option_outline</title><g id="レイヤー_2" data-name="レイヤー 2"><g id="c-icon--option"><rect class="cls-1" width="64" height="64"/><path class="cls-2" d="M24.27,35l.93.93.71.71.71-.71,0,0,1.86,1.86,0,0-.71.71.71.71.93.93-1.08,1.08-.5.5.3.64a2.47,2.47,0,0,1-.47,2.8L15.39,57.38A5.94,5.94,0,0,1,7,49L19.37,36.59A2.26,2.26,0,0,1,21,35.93a2.36,2.36,0,0,1,1.08.26l.65.34.52-.52,1-1m0-1.41L22.52,35.3A3.35,3.35,0,0,0,21,34.93a3.26,3.26,0,0,0-2.32,1L6.28,48.27a6.94,6.94,0,0,0,9.81,9.81L28.36,45.81A3.47,3.47,0,0,0,29,41.88l1.79-1.79-1.64-1.64.73-.73-3.27-3.27-.73.73-1.64-1.64Z"/><path class="cls-2" d="M56.23,5.12l2.15,2.15-4.72,7.61L49.57,16l-.26.07-.19.19L37.26,28.1,35.4,26.24,47.27,14.37l.19-.19.07-.26,1.09-4.09,7.61-4.72m.15-1.27L47.76,9.2l-1.2,4.47L34,26.24l3.27,3.27L49.83,16.94l4.47-1.2,5.35-8.62L56.38,3.85Z"/><path class="cls-2" d="M15.86,5.14a10.56,10.56,0,0,1,9.67,14.42l-.24.61.46.46,7.17,7.17,3.27,3.27L55.36,50.23l3.37,3.37-1.08,4-4,1.08-3.37-3.37L31.07,36.2,27.8,32.93l-7.17-7.17-.46-.46-.61.24A10.55,10.55,0,0,1,5.14,15.86L9.5,20.22l.41.41.56-.15,7.34-2,.56-.15.15-.56,2-7.34.15-.56-.41-.41L15.86,5.14m-.16-1a11.65,11.65,0,0,0-2.07.19l5.88,5.88-2,7.34-7.34,2L4.32,13.63a11.56,11.56,0,0,0,15.6,12.83l7.17,7.17,3.27,3.27L49.52,56.06l3.78,3.78,0,0,0,0,5.11-1.37,1.37-5.11,0,0,0,0-3.78-3.78L36.91,30.36l-3.27-3.27-7.17-7.17A11.56,11.56,0,0,0,15.71,4.14Z"/></g></g></svg>