<svg xmlns="http://www.w3.org/2000/svg" xmlns:xlink="http://www.w3.org/1999/xlink" viewBox="0 0 64 64"><defs><style>.cls-1{fill:none;}.cls-2{clip-path:url(#clip-path);}.cls-3{fill:#e5e5e5;}</style><clipPath id="clip-path"><rect class="cls-1" x="4" y="4" width="56" height="56"/></clipPath></defs><title>c-icon--browser_bold</title><g id="レイヤー_2" data-name="レイヤー 2"><g id="c-icon--licence_arakawa"><rect class="cls-1" width="64" height="64"/><g class="cls-2"><path class="cls-3" d="M49.77,55.09A3.28,3.28,0,0,0,48.6,53.4a2.91,2.91,0,0,0,.63-2.4c-.67-2.5-6.11-3.32-13.06-2.26,0-.35.09-.65.12-.87,5.45-1.45,8.52-5.77,7.79-10.19,1.28.11,2.81-1.09,3.64-3s.7-3.71-.18-4.62l.33-.21,2.45-.19-.79-4.22,2.36,2a23,23,0,0,1-1.64-6.94l2.36-1.35S49,18.76,48.8,16.88s-1.39-7.41-9.36-9c0,0-3.35-3.91-7.57-3.91L32,5.64s-6.51-2.35-11.88,6.47c-1.68,2.76-3.09,3.72-5.19,2.35,0,0,1.32,3.56-2.71,2.29,0,0,7,4.09-.94,8.62,0,0,3.72-.69,3.33,4.08-.08.92,1.6,1,1.57,2.51a6,6,0,0,0,.54,2.75c.83,1.88,2.36,3.08,3.64,3-.73,4.41,2.34,8.74,7.79,10.19,0,.22.07.52.12.86-6.92-1-12.32-.22-13,2.27a2.91,2.91,0,0,0,.63,2.4,3.28,3.28,0,0,0-1.17,1.69c-1.9.89-3,1.93-3,3,0,3.24,9.19,5.87,20.53,5.87s20.53-2.63,20.53-5.87C52.76,57,51.67,56,49.77,55.09Z"/></g></g></g></svg>