<svg xmlns="http://www.w3.org/2000/svg" viewBox="0 0 64 64"><defs><style>.cls-1,.cls-3{fill:none;}.cls-2{fill:#e5e5e5;}.cls-3{stroke:#e5e5e5;stroke-miterlimit:10;stroke-width:3px;}</style></defs><title>c-icon--licence_arakawa</title><g id="レイヤー_2" data-name="レイヤー 2"><g id="c-icon--browser_bold"><rect class="cls-1" width="64" height="64"/><path class="cls-2" d="M32,7A25,25,0,1,1,7,32,25,25,0,0,1,32,7m0-3A28,28,0,1,0,60,32,28,28,0,0,0,32,4Z"/><path class="cls-2" d="M32,7c5.2,0,11,10.27,11,25S37.2,57,32,57,21,46.73,21,32,26.8,7,32,7m0-3C24.27,4,18,16.54,18,32s6.27,28,14,28S46,47.46,46,32,39.73,4,32,4Z"/><path class="cls-2" d="M32,21c14.73,0,25,5.8,25,11S46.73,43,32,43,7,37.2,7,32,17.27,21,32,21m0-3C16.54,18,4,24.27,4,32S16.54,46,32,46s28-6.27,28-14S47.46,18,32,18Z"/><line class="cls-3" x1="32" y1="60" x2="32" y2="4"/><line class="cls-3" x1="60" y1="32" x2="4" y2="32"/></g></g></svg>