<svg xmlns="http://www.w3.org/2000/svg" viewBox="0 0 64 64"><defs><style>.cls-1,.cls-3{fill:none;}.cls-2{fill:#333;}.cls-3{stroke:#333;stroke-miterlimit:10;}</style></defs><title>c-icon--browser_lighter</title><g id="レイヤー_2" data-name="レイヤー 2"><g id="c-icon--browser_lighter"><rect class="cls-1" width="64" height="64"/><path class="cls-2" d="M32,5A27,27,0,1,1,5,32,27,27,0,0,1,32,5m0-1A28,28,0,1,0,60,32,28,28,0,0,0,32,4Z"/><path class="cls-2" d="M32,5c7,0,13,12.36,13,27S39,59,32,59,19,46.64,19,32,25,5,32,5m0-1C24.27,4,18,16.54,18,32s6.27,28,14,28S46,47.46,46,32,39.73,4,32,4Z"/><path class="cls-2" d="M32,19c14.64,0,27,6,27,13S46.64,45,32,45,5,39,5,32,17.36,19,32,19m0-1C16.54,18,4,24.27,4,32S16.54,46,32,46s28-6.27,28-14S47.46,18,32,18Z"/><line class="cls-3" x1="32" y1="60" x2="32" y2="4"/><line class="cls-3" x1="60" y1="32" x2="4" y2="32"/></g></g></svg>