<svg xmlns="http://www.w3.org/2000/svg" viewBox="0 0 213.5 411.2"><title>p-jackun--polygon</title><g id="p-jackun--polygon" data-name="p-jackun--polygon"><g id="c-robot"><g id="c-bottom"><g id="c-leg-right"><g id="c-leg__foot"><g id="c-foot-bottom"><path d="M134.12,343l52.12,30.06-62.5,36.09L72.12,379.4l62-36.38m0-1.16-64,37.54,53.62,30.93,64.5-37.25-54.13-31.22Z" style="fill:#333"/></g><g id="c-foot-back__right"><path d="M135.31,319.24l51.44,29.67v22.44L135,341.51l.3-22.27m-1-1.72L134,342.08l53.75,31V348.33l-53.42-30.81Z" style="fill:#333"/></g><g id="c-foot-back__left"><path d="M133.75,320v22.2l-62.5,36.46V355.91L133.75,320m1-1.73-64.5,37.06v25.06l64.5-37.62v-24.5Z" style="fill:#333"/></g><g id="c-foot-flont__right"><path d="M187.25,350.81V373l-62.5,36.46V386.91l62.5-36.09m1-1.73-64.5,37.25V411.2l64.5-37.62v-24.5Z" style="fill:#333"/></g><g id="c-foot-flont__left"><path d="M71.24,357.2l51.51,29.71v22.44L71,379.52l.21-22.32m-1-1.72L70,380.09l53.73,31V386.33L70.26,355.48Z" style="fill:#333"/></g><g id="c-foot-top"><path d="M134.14,319l52.11,30.05-62.5,36.09L72.24,355.47,134.14,319m0-1.16-63.88,37.6,53.49,30.85,64.5-37.25-54.12-31.21Z" style="fill:#333"/></g></g><g id="c-leg__knee"><g id="c-knee-bottom"><path d="M133.75,318.53l53,30.85-52,30.83L82.65,348.39l51.1-29.86m0-1.16-53,31,54,33,54-32-55-32Z" style="fill:#333"/></g><g id="c-knee-back__right"><path d="M134.77,245.29l53,30.61V348l-52-30.46-1-72.21m-1-1.75,1,74.53,54,31.63V275.33l-55-31.78Z" style="fill:#333"/></g><g id="c-knee-back__left"><path d="M132.77,245.27l1,72.24L82.47,348l-.71-73.1,51-29.68m1-1.73-53,30.83.73,75.42,53.26-31.72-1-74.53Z" style="fill:#333"/></g><g id="c-knee-flont__right"><path d="M187.75,277v72.08l-52,29.73v-72.2l52-29.62m1-1.72-54,30.75v74.5l54-30.87V275.33Z" style="fill:#333"/></g><g id="c-knee-flont__left"><path d="M81.7,276.12l52,30.53v72.18l-52-30.51,0-72.2m-1-1.75,0,74.52,54,31.68v-74.5l-54-31.7Z" style="fill:#333"/></g><g id="c-knee-top"><path d="M133.75,244.53l53,30.85-52,30.83L82.65,274.39l51.1-29.86m0-1.16-53,31,54,33,54-32-55-32Z" style="fill:#333"/></g></g></g><g id="c-leg-left"><g id="c-leg__foot-2" data-name="c-leg__foot"><g id="c-foot-bottom-2" data-name="c-foot-bottom"><path d="M81.12,312l52.12,30.06-62.5,36.09L19.12,348.4l62-36.38m0-1.16-64,37.54,53.62,30.93,64.5-37.25L81.12,310.86Z" style="fill:#333"/></g><g id="c-foot-back__right-2" data-name="c-foot-back__right"><path d="M82.31,288.24l51.44,29.67v22.44L82,310.51l.3-22.27m-1-1.72L81,311.08l53.75,31V317.33L81.33,286.52Z" style="fill:#333"/></g><g id="c-foot-back__left-2" data-name="c-foot-back__left"><path d="M80.75,289v22.2l-62.5,36.46V324.91L80.75,289m1-1.73-64.5,37.06v25.06l64.5-37.62v-24.5Z" style="fill:#333"/></g><g id="c-foot-flont__right-2" data-name="c-foot-flont__right"><path d="M134.25,319.81V342l-62.5,36.46V355.91l62.5-36.09m1-1.73-64.5,37.25V380.2l64.5-37.62v-24.5Z" style="fill:#333"/></g><g id="c-foot-flont__left-2" data-name="c-foot-flont__left"><path d="M18.24,326.2l51.51,29.71v22.44L18,348.52l.21-22.32m-1-1.72L17,349.09l53.73,31V355.33L17.26,324.48Z" style="fill:#333"/></g><g id="c-foot-top-2" data-name="c-foot-top"><path d="M81.14,288l52.11,30.05-62.5,36.09L19.24,324.47,81.14,288m0-1.16-63.88,37.6,53.49,30.85,64.5-37.25L81.13,286.87Z" style="fill:#333"/></g></g><g id="c-leg__knee-2" data-name="c-leg__knee"><g id="c-knee-bottom-2" data-name="c-knee-bottom"><path d="M80.75,287.53l53,30.85-52,30.83L29.65,317.39l51.1-29.86m0-1.16-53.05,31,54.05,33,54-32-55-32Z" style="fill:#333"/></g><g id="c-knee-back__right-2" data-name="c-knee-back__right"><path d="M81.77,214.29l53,30.61V317l-52-30.46-1-72.21m-1-1.75,1,74.53,54,31.63V244.33l-55-31.78Z" style="fill:#333"/></g><g id="c-knee-back__left-2" data-name="c-knee-back__left"><path d="M79.77,214.27l1,72.24L29.47,317l-.71-73.1,51-29.68m1-1.73-53,30.83.73,75.42,53.26-31.72-1-74.53Z" style="fill:#333"/></g><g id="c-knee-flont__right-2" data-name="c-knee-flont__right"><path d="M134.75,246v72.08l-52,29.73v-72.2l52-29.62m1-1.72-54,30.75v74.5l54-30.87V244.33Z" style="fill:#333"/></g><g id="c-knee-flont__left-2" data-name="c-knee-flont__left"><path d="M28.7,245.12l52,30.53v72.18l-52-30.51,0-72.2m-1-1.75.05,74.52,54,31.68v-74.5l-54-31.7Z" style="fill:#333"/></g><g id="c-knee-top-2" data-name="c-knee-top"><path d="M80.75,213.53l53,30.85-52,30.83L29.65,243.39l51.1-29.86m0-1.16-53.05,31,54.05,33,54-32-55-32Z" style="fill:#333"/></g></g></g></g><g id="c-waist"><g id="c-waist-bottom"><path d="M85.87,211.61l105.37,60.77-62.5,36.09L23.25,247.63l62.62-36m0-1.15L21.25,247.63l107.5,62,64.5-37.25L85.88,210.45Z" style="fill:#333"/></g><g id="c-waist-back__right"><path d="M84.75,188.29v22.2l-62.5,36.46V224.2l62.5-35.91m1-1.73-64.5,37.06v25.06l64.5-37.62v-24.5Z" style="fill:#333"/></g><g id="c-waist-back__left"><path d="M86.25,187.36l105.5,60.85v22.44L86.25,209.8V187.36m-1-1.73v24.75l107.5,62V247.63l-107.5-62Z" style="fill:#333"/></g><g id="c-waist-flont__right"><path d="M22.25,225.36l105.5,60.85v22.44L22.25,247.8V225.36m-1-1.73v24.75l107.5,62V285.63l-107.5-62Z" style="fill:#333"/></g><g id="c-waist-flont__left"><path d="M192.25,250.11V272.3l-62.5,36.46V286.2l62.5-36.09m1-1.73-64.5,37.25V310.5l64.5-37.62v-24.5Z" style="fill:#333"/></g><g id="c-waist-top"><path d="M85.87,187.61l105.37,60.77-62.5,36.09L23.25,223.63l62.62-36m0-1.15L21.25,223.63l107.5,62,64.5-37.25L85.88,186.45Z" style="fill:#333"/></g></g><g id="c-body"><g id="c-body-bottom"><path d="M85.87,187.61l105.37,60.77-62.5,36.09L23.25,223.63l62.62-36m0-1.15L21.25,223.63l107.5,62,64.5-37.25L85.88,186.45Z" style="fill:#333"/></g><g id="c-body-back__right"><path d="M86.75,64.1,192,124.45l.25,122.19L86.75,185.8V64.1m-1-1.73v124l107.5,62L193,123.88,85.75,62.38Z" style="fill:#333"/></g><g id="c-body-back__left"><path d="M85.25,64V185.68l-62.5,36.58.12-121.81L85.25,64m1-1.74L21.88,99.88,21.75,224l64.5-37.75v-124Z" style="fill:#333"/></g><g id="c-body-flont__right"><path d="M192.25,126V247.67l-62.5,36.22.12-121.44L192.25,126m1-1.74-64.37,37.63-.12,123.75,64.5-37.37v-124Z" style="fill:#333"/></g><g id="c-body-flont__left"><path d="M22.25,101.11,128,162.45l-.25,121.45L22.25,223.3V101.11m-1-1.74v124.5l107.5,61.75L129,161.88,21.25,99.38Z" style="fill:#333"/></g><g id="c-body-top"><path d="M85.75,63.44l105.51,60.7-62.39,36.58L23.25,99.38l62.5-35.94m0-1.15L21.25,99.38l107.63,62.5,64.38-37.75L85.75,62.28Z" style="fill:#333"/></g></g><g id="c-arm-left"><g id="c-arm__hand"><g id="c-hand-bottom"><path d="M37.59,183.91l19.6,11.39-19.6,11.39L18,195.3l19.6-11.39m0-1.16L16,195.3l21.59,12.55L59.17,195.3,37.59,182.75Z" style="fill:#333"/></g><g id="c-hand-back__right"><path d="M38.59,184.37l19.59,11.5v21.29l-.83.44-15.86-9.22-2.9-5.09V184.37m-1-1.75v20.93l3.16,5.56,16.58,9.64,1.85-1V195.3L37.59,182.63Z" style="fill:#333"/></g><g id="c-hand-back__left"><path d="M36.59,184.3v18.5L17,214.37V195.69L36.59,184.3m1-1.74L16,195.11v21l21.59-12.75V182.56Z" style="fill:#333"/></g><g id="c-hand-flont__right"><path d="M58.17,197v20L38.59,228.39v-20L58.17,197m1-1.74L37.59,207.85v22.28l21.59-12.5V195.3Z" style="fill:#333"/></g><g id="c-hand-back__left--slope"><path d="M37.21,204.76l2.19,4L19.46,220.25l-2.11-3.76,19.86-11.73m.38-1.39L16,216.13l3.09,5.5,21.66-12.51-3.16-5.74Z" style="fill:#333"/></g><g id="c-hand-flont__left"><path d="M17,197l19.59,11.39v21.23l-.85.49-15.9-9.25L17,215.62V197m-1-1.74v20.58l3.08,5.74,16.65,9.68,1.85-1.07V207.85L16,195.3Z" style="fill:#333"/></g><g id="c-hand-top"><path d="M40.75,210.27l14.77,8.37-19.8,11.5-14.65-8.51,19.67-11.36m0-1.15L19.09,221.62l16.64,9.67,21.81-12.67-16.79-9.51Z" style="fill:#333"/></g></g><g id="c-arm__wrist"><g id="c-wrist-bottom"><path d="M41.25,176.66,71.5,194.25l-39.25,22.6L2,199.25l39.25-22.6m0-1.16L0,199.25,32.25,218,73.5,194.25,41.25,175.5Z" style="fill:#333"/></g><g id="c-wrist-back__right"><path d="M42.25,116.49,72.5,134.08v58.44L42.25,174.92V116.49m-1-1.74V175.5L73.5,194.25V133.5L41.25,114.75Z" style="fill:#333"/></g><g id="c-wrist-back__left"><path d="M40.25,116.48v58.44L1,197.52V139.08l39.25-22.6m1-1.73L0,138.5v60.75L41.25,175.5V114.75Z" style="fill:#333"/></g><g id="c-wrist-flont__right"><path d="M72.5,135.23v58.44l-39.25,22.6V157.83l39.25-22.6m1-1.73L32.25,157.25V218L73.5,194.25V133.5Z" style="fill:#333"/></g><g id="c-wrist-flont__left"><path d="M1,140.24l30.25,17.59v58.44L1,198.67V140.24M0,138.5v60.75L32.25,218V157.25L0,138.5Z" style="fill:#333"/></g><g id="c-wrist-top"><path d="M41.25,116.66,71.5,134.25l-39.25,22.6L2,139.25l39.25-22.6m0-1.16L0,139.25,32.25,158,73.5,134.25,41.25,115.5Z" style="fill:#333"/></g></g><g id="c-arm__elbow"><g id="c-elobow-bottom"><path d="M37.59,125.43l19.6,11.39-19.6,11.39L18,136.83l19.6-11.39m0-1.16L16,136.83l21.59,12.55,21.59-12.55L37.59,124.28Z" style="fill:#333"/></g><g id="c-elobow-back__right"><path d="M38.59,119.49l19.59,11.39v4.21L38.59,123.7v-4.21m-1-1.74v6.53l21.59,12.55V130.3L37.59,117.75Z" style="fill:#333"/></g><g id="c-elobow-back__left"><path d="M36.59,119.49v4.21L17,135.09v-4.21l19.59-11.39m1-1.74L16,130.3v6.53l21.59-12.55v-6.53Z" style="fill:#333"/></g><g id="c-elobow-flont__right"><path d="M58.17,132v4.21L38.59,147.64v-4.21L58.17,132m1-1.74L37.59,142.85v6.53l21.59-12.55V130.3Z" style="fill:#333"/></g><g id="c-elobow-flont__left"><path d="M17,132l19.59,11.39v4.21L17,136.25V132m-1-1.74v6.53l21.59,12.55v-6.53L16,130.3Z" style="fill:#333"/></g><g id="c-elobow-top"><path d="M37.59,118.91l19.6,11.39-19.6,11.39L18,130.3l19.6-11.39m0-1.16L16,130.3l21.59,12.55L59.17,130.3,37.59,117.75Z" style="fill:#333"/></g></g><g id="c-arm__sholder"><g id="c-sholder-bottom"><path d="M41.25,109.66,71.5,127.25l-39.25,22.6L2,132.25l39.25-22.6m0-1.16L0,132.25,32.25,151,73.5,127.25,41.25,108.5Z" style="fill:#333"/></g><g id="c-sholder-back__right"><path d="M42.25,61.49l1,.57.11.06.12,0,29,8.1v55.25L42.25,107.92V61.49m-1-1.74V108.5L73.5,127.25V69.5L43.73,61.19l-2.48-1.44Z" style="fill:#333"/></g><g id="c-sholder-back__left"><path d="M40.25,61.48v46.44L1,130.52V84.08l39.25-22.6m1-1.73L0,83.5v48.75L41.25,108.5V59.75Z" style="fill:#333"/></g><g id="c-sholder-flont__right"><path d="M72.5,71.23v55.44l-39.25,22.6V93.83L72.5,71.23m1-1.73L32.25,93.25V151L73.5,127.25V69.5Z" style="fill:#333"/></g><g id="c-sholder-flont__left"><path d="M1,85.24l1,.57.11.06.12,0L9.75,88l21.5,6v55.25L1,131.67V85.24M0,83.5v48.75L32.25,151V93.25L10,87l-7.54-2.1L0,83.5Z" style="fill:#333"/></g><g id="c-sholder-top--slope"><path d="M41.39,61.58l29.55,8.25L32.11,92.17,2.56,83.93,41.39,61.58m-.14-1.08L0,84.25l32.25,9L73.5,69.5l-32.25-9Z" style="fill:#333"/></g></g></g><g id="c-arm-right"><g id="c-arm__hand-2" data-name="c-arm__hand"><g id="c-hand-bottom-2" data-name="c-hand-bottom"><path d="M179.32,289.44,194,298,174.3,309.31l-14.65-8.52,19.67-11.35m0-1.16-21.67,12.5,16.64,9.68L196,298l-16.64-9.67Z" style="fill:#333"/></g><g id="c-hand-back__left--slope-2" data-name="c-hand-back__left--slope"><path d="M177.38,287.63l.36.4-19.87,11.3-.42-.62,19.93-11.08m.21-1.26-21.59,12,1.56,2.28,21.76-12.37-1.74-1.91Z" style="fill:#333"/></g><g id="c-hand-back__right-2" data-name="c-hand-back__right"><path d="M178.59,264.49l19.59,11.39v19.65L196,296.8l-16-9.31L178.59,286v-21.5m-1-1.74v23.62l1.74,1.91L196,298l3.21-1.85V275.3l-21.59-12.55Z" style="fill:#333"/></g><g id="c-hand-back__left-2" data-name="c-hand-back__left"><path d="M177.59,264.49V286.7L158,298.09V275.87l19.59-11.39m1-1.74L157,275.3v24.53l21.59-12.55V262.75Z" style="fill:#333"/></g><g id="c-hand-flont__right-2" data-name="c-hand-flont__right"><path d="M198.17,277v18.49l-19.59,11.31V288.42L198.17,277m1-1.74-21.59,12.55v20.72l21.59-12.46V275.3Z" style="fill:#333"/></g><g id="c-hand-flont__left-2" data-name="c-hand-flont__left"><path d="M157,277l19.59,11.39V308l-2.28,1.32L158.35,300l-1.35-2V277m-1-1.74v23.08l1.66,2.41,16.64,9.68,3.28-1.9V287.85L156,275.3Z" style="fill:#333"/></g><g id="c-hand-top-2" data-name="c-hand-top"><path d="M177.59,263.91l19.6,11.39-19.6,11.39L158,275.3l19.6-11.39m0-1.16L156,275.3l21.59,12.55,21.59-12.55-21.59-12.55Z" style="fill:#333"/></g></g><g id="c-arm__wrist-2" data-name="c-arm__wrist"><g id="c-wrist-bottom-2" data-name="c-wrist-bottom"><path d="M181.25,256.66l30.26,17.59-39.25,22.6L142,279.25l39.25-22.6m0-1.16L140,279.25,172.25,298l41.25-23.75L181.25,255.5Z" style="fill:#333"/></g><g id="c-wrist-back__right-2" data-name="c-wrist-back__right"><path d="M182.25,196.49l30.25,17.59v58.44l-30.25-17.59V196.49m-1-1.74V255.5l32.25,18.75V213.5l-32.25-18.75Z" style="fill:#333"/></g><g id="c-wrist-back__left-2" data-name="c-wrist-back__left"><path d="M180.25,196.48v58.44L141,277.52V219.08l39.25-22.6m1-1.73L140,218.5v60.75l41.25-23.75V194.75Z" style="fill:#333"/></g><g id="c-wrist-flont__right-2" data-name="c-wrist-flont__right"><path d="M212.5,215.23v58.44l-39.25,22.6V237.83l39.25-22.6m1-1.73-41.25,23.75V298l41.25-23.75V213.5Z" style="fill:#333"/></g><g id="c-wrist-flont__left-2" data-name="c-wrist-flont__left"><path d="M141,220.24l30.25,17.59v58.44L141,278.67V220.24m-1-1.74v60.75L172.25,298V237.25L140,218.5Z" style="fill:#333"/></g><g id="c-wrist-top-2" data-name="c-wrist-top"><path d="M181.25,196.66l30.26,17.59-39.25,22.6L142,219.25l39.25-22.6m0-1.16L140,219.25,172.25,238l41.25-23.75L181.25,195.5Z" style="fill:#333"/></g></g><g id="c-arm__elbow-2" data-name="c-arm__elbow"><g id="c-elobow-bottom-2" data-name="c-elobow-bottom"><path d="M177.59,204.43l19.6,11.39-19.6,11.39L158,215.83l19.6-11.39m0-1.16L156,215.83l21.59,12.55,21.59-12.55-21.59-12.55Z" style="fill:#333"/></g><g id="c-elobow-back__right-2" data-name="c-elobow-back__right"><path d="M178.59,198.49l19.59,11.39v4.21L178.59,202.7v-4.21m-1-1.74v6.53l21.59,12.55V209.3l-21.59-12.55Z" style="fill:#333"/></g><g id="c-elobow-back__left-2" data-name="c-elobow-back__left"><path d="M176.59,198.49v4.21L157,214.09v-4.21l19.59-11.39m1-1.74L156,209.3v6.53l21.59-12.55v-6.53Z" style="fill:#333"/></g><g id="c-elobow-flont__right-2" data-name="c-elobow-flont__right"><path d="M198.17,211v4.21l-19.59,11.39v-4.21L198.17,211m1-1.74-21.59,12.55v6.53l21.59-12.55V209.3Z" style="fill:#333"/></g><g id="c-elobow-flont__left-2" data-name="c-elobow-flont__left"><path d="M157,211l19.59,11.39v4.21L157,215.25V211m-1-1.74v6.53l21.59,12.55v-6.53L156,209.3Z" style="fill:#333"/></g><g id="c-elobow-top-2" data-name="c-elobow-top"><path d="M177.59,197.91l19.6,11.39-19.6,11.39L158,209.3l19.6-11.39m0-1.16L156,209.3l21.59,12.55,21.59-12.55-21.59-12.55Z" style="fill:#333"/></g></g><g id="c-arm__sholder-2" data-name="c-arm__sholder"><g id="c-sholder-bottom-2" data-name="c-sholder-bottom"><path d="M181.25,189.66l30.26,17.59-39.25,22.6L142,212.25l39.25-22.6m0-1.16L140,212.25,172.25,231l41.25-23.75L181.25,188.5Z" style="fill:#333"/></g><g id="c-sholder-back__right-2" data-name="c-sholder-back__right"><path d="M180.25,132.48v55.44L141,210.52V155.08l39.25-22.6m1-1.73L140,154.5v57.75l41.25-23.75V130.75Z" style="fill:#333"/></g><g id="c-sholder-back__left-2" data-name="c-sholder-back__left"><path d="M182.25,133l28.09,24.82,2.16,2.13v45.59l-30.25-17.59V133m-1-2.22V188.5l32.25,18.75V159.5L211,157.06l-29.77-26.31Z" style="fill:#333"/></g><g id="c-sholder-flont__right-2" data-name="c-sholder-flont__right"><path d="M141,156.72l28.11,24.84.07.07.09,0,2,1.15v46.44L141,211.67v-55m-1-2.22v57.75L172.25,231V182.25l-2.48-1.44L140,154.5Z" style="fill:#333"/></g><g id="c-sholder-flont__left-2" data-name="c-sholder-flont__left"><path d="M212.5,160.23v46.44l-39.25,22.6V182.83l39.25-22.6m1-1.73-41.25,23.75V231l41.25-23.75V158.5Z" style="fill:#333"/></g><g id="c-sholder-top--slope-2" data-name="c-sholder-top--slope"><path d="M181.13,132l30.67,27.1-39.42,22.7-30.67-27.1L181.13,132m.12-1.23L140,154.5,172.25,183l41.25-23.75-32.25-28.5Z" style="fill:#333"/></g></g></g><g id="c-head"><g id="c-head-bottom"><path d="M107.25,75.28l62.5,36.1-62.5,36.1-62.5-36.1,62.5-36.1m0-1.15-64.5,37.25,64.5,37.25,64.5-37.25-64.5-37.25Z" style="fill:#333"/></g><g id="c-head-back__right"><path d="M107.76,1.74l62.49,36.09V110l-62-36.09-.48-72.18m-1-1.74.5,74.5,64,37.25V37.25L106.75,0Z" style="fill:#333"/></g><g id="c-head-back__left"><path d="M106.74,2.11,106.5,73.8,44.25,110.38V38.2L106.74,2.11m1-1.74L43.25,37.63v74.5L107.5,74.38l.25-74Z" style="fill:#333"/></g><g id="c-head-flont__right"><path d="M170.75,39.11V111.3l-62.5,36.09V75.2l62.5-36.09m1-1.73-64.5,37.25v74.5l64.5-37.25V37.38Z" style="fill:#333"/></g><g id="c-head-flont__left"><path d="M43.76,39.11,106.25,75.2v72.18l-62-36.09-.48-72.18m-1-1.74.5,74.5,64,37.25V74.63L42.75,37.38Z" style="fill:#333"/></g><g id="c-head-top"><path d="M107.25,1.28l62.5,36.1-62.5,36.1-62.5-36.1,62.5-36.1m0-1.15L42.75,37.38l64.5,37.25,64.5-37.25L107.25.13Z" style="fill:#333"/></g></g><g id="c-screw"><g id="c-screw-right"><g id="c-screw-back"><path d="M115.48,162.67a4.35,4.35,0,0,1,2.14.69c2.78,1.64,5.13,5.58,5.13,8.6,0,1.85-.86,3-2.31,3a4.48,4.48,0,0,1-2.08-.61,11,11,0,0,1-5.11-8.59c0-1.9.83-3,2.23-3m0-.75c-1.77,0-3,1.38-3,3.79A11.65,11.65,0,0,0,118,175a5.17,5.17,0,0,0,2.44.7c1.81,0,3.06-1.36,3.06-3.7,0-3.3-2.48-7.46-5.5-9.25a5,5,0,0,0-2.52-.79Z" style="fill:#333"/></g><g id="c-screw-flont"><path d="M115,163.42a4.1,4.1,0,0,1,2,.65c2.71,1.6,5,5.45,5,8.39,0,.81-.2,2.7-2.06,2.7a4.23,4.23,0,0,1-2-.58,10.68,10.68,0,0,1-5-8.37c0-.84.19-2.79,2-2.79m0-1c-1.77,0-3,1.38-3,3.79a11.65,11.65,0,0,0,5.5,9.25,5.17,5.17,0,0,0,2.44.7c1.81,0,3.06-1.36,3.06-3.7,0-3.3-2.48-7.46-5.5-9.25a5,5,0,0,0-2.52-.79Z" style="fill:#333"/></g></g><g id="c-screw-left"><g id="c-screw-back-2" data-name="c-screw-back"><path d="M29.48,112.67a4.35,4.35,0,0,1,2.14.69c2.78,1.64,5.13,5.58,5.13,8.6,0,1.85-.86,3-2.31,3a4.48,4.48,0,0,1-2.08-.61,11,11,0,0,1-5.11-8.59c0-1.9.83-3,2.23-3m0-.75c-1.77,0-3,1.38-3,3.79A11.65,11.65,0,0,0,32,125a5.17,5.17,0,0,0,2.44.7c1.81,0,3.06-1.36,3.06-3.7,0-3.3-2.48-7.46-5.5-9.25a5,5,0,0,0-2.52-.79Z" style="fill:#333"/></g><g id="c-screw-flont-2" data-name="c-screw-flont"><path d="M29,113.42a4.1,4.1,0,0,1,2,.65c2.72,1.6,5,5.45,5,8.39,0,.81-.2,2.7-2.06,2.7a4.23,4.23,0,0,1-2-.58,10.68,10.68,0,0,1-5-8.37c0-.84.19-2.79,2-2.79m0-1c-1.77,0-3,1.38-3,3.79a11.65,11.65,0,0,0,5.5,9.25,5.17,5.17,0,0,0,2.44.7c1.81,0,3.06-1.36,3.06-3.7,0-3.3-2.48-7.46-5.5-9.25a5,5,0,0,0-2.52-.79Z" style="fill:#333"/></g></g></g></g></g></svg>
