<svg xmlns="http://www.w3.org/2000/svg" viewBox="0 0 330 196"><title>c-setting__image</title><g id="レイヤー_2" data-name="レイヤー 2"><g id="indexページ"><g id="page"><g id="cotent"><rect x="67" y="-67" width="196" height="330" transform="translate(263 -67) rotate(90)" style="fill:none"/><g id="SVGロゴ"><path d="M78.89,58.9c0,.27,0,.56-.06.86l1.12-2-.12-.66,1.12-.17.41,2.81.52-1.76a2.15,2.15,0,0,0,.07-.43,1.65,1.65,0,0,0-.05-.46l1.18-.22a3.08,3.08,0,0,1,.06.66,2.92,2.92,0,0,1-.28,1.06L81.9,61.1H80.5l-.29-1.9-1.1,1.9H77.75a27.4,27.4,0,0,0-.13-4l1.17-.18A11.48,11.48,0,0,1,78.89,58.9Z" style="fill:#005fa8"/><path d="M86.18,57.93c-.54.29-.74.4-1.23.7l-.52,2.46H83.21L84.07,57l1.07-.18,0,.57a9.33,9.33,0,0,1,1.11-.57Z" style="fill:#005fa8"/><path d="M86.9,57l1.25-.17-.9,4.26H86Zm.39-1.85L88.54,55l-.28,1.29L87,56.45Z" style="fill:#005fa8"/><path d="M90.38,57.89,89.94,60a.72.72,0,0,0,0,.11c0,.06,0,.09.12.09a1.94,1.94,0,0,0,.66-.17l.21.84a3,3,0,0,1-1.34.34c-.61,0-.93-.29-.91-.79a1.33,1.33,0,0,1,0-.18l.49-2.33h-.62l.21-1h.62l.21-1,1.25-.17-.25,1.18h1l-.27,1Z" style="fill:#005fa8"/><path d="M91.82,58.41a1.74,1.74,0,0,1,2-1.58c.79,0,1.38.34,1.35,1s-.46,1.19-1.5,1.5c-.51.15-.52.15-.88.25l-.06.29c0,.15,0,.29.2.29a4.87,4.87,0,0,0,1.66-.46l.2.86a4.25,4.25,0,0,1-2.06.58c-.87,0-1.22-.38-1.2-1.09a2.79,2.79,0,0,1,.07-.51ZM94,58c0-.15-.12-.24-.34-.24-.44,0-.58.25-.65.59l-.06.29c.21-.05.3-.07.55-.15S94,58.26,94,58Z" style="fill:#005fa8"/><path d="M98.28,55.21,99.53,55,98.25,61.1H97Z" style="fill:#005fa8"/><path d="M99.69,58.41a1.74,1.74,0,0,1,2-1.58c.79,0,1.38.34,1.35,1s-.46,1.19-1.5,1.5c-.51.15-.52.15-.88.25l-.06.29c0,.15,0,.29.2.29a4.87,4.87,0,0,0,1.66-.46l.2.86a4.25,4.25,0,0,1-2.06.58c-.87,0-1.22-.38-1.2-1.09a2.79,2.79,0,0,1,.07-.51Zm2.2-.4c0-.15-.12-.24-.34-.24-.44,0-.58.25-.65.59l-.06.29c.21-.05.3-.07.55-.15S101.88,58.26,101.89,58Z" style="fill:#005fa8"/><path d="M103.12,60.91l.26-.89a3.22,3.22,0,0,0,1.13.21c.4,0,.43-.12.47-.32s-.08-.29-.54-.54c-.86-.46-.88-.77-.75-1.4.19-.9.47-1.14,1.63-1.14a4.44,4.44,0,0,1,1.24.2l-.23.91a4.54,4.54,0,0,0-1.05-.15c-.36,0-.41,0-.46.27s0,.24.4.46c.94.52,1.08.7.94,1.36-.2.94-.49,1.32-1.75,1.32A3.54,3.54,0,0,1,103.12,60.91Z" style="fill:#005fa8"/><path d="M106.59,60.91l.26-.89a3.22,3.22,0,0,0,1.13.21c.4,0,.43-.12.47-.32s-.08-.29-.54-.54c-.86-.46-.88-.77-.75-1.4.19-.9.47-1.14,1.63-1.14A4.44,4.44,0,0,1,110,57l-.23.91a4.54,4.54,0,0,0-1.05-.15c-.36,0-.41,0-.46.27s0,.24.4.46c.94.52,1.08.7.94,1.36-.2.94-.49,1.32-1.75,1.32A3.54,3.54,0,0,1,106.59,60.91Z" style="fill:#005fa8"/><path d="M109.9,62l.69-.94h-.46l.3-1.43h1.21l-.33,1.53-1,1.18Z" style="fill:#005fa8"/><path d="M116.52,61.1l0-.36a2.08,2.08,0,0,1-1.35.45c-.91,0-1.11-.55-.92-1.49l.24-1.12c.21-1,.49-1.74,2.25-1.74a3.14,3.14,0,0,1,.51,0l.35-1.67,1.24-.17-1.28,6.06Zm-1.11-1.25c-.05.22,0,.33.22.33a1.5,1.5,0,0,0,1-.43l.39-1.86a2.61,2.61,0,0,0-.47,0c-.63,0-.77.33-.86.74Z" style="fill:#005fa8"/><path d="M118.67,59.79a1.7,1.7,0,0,1,0-.29l.21-1a1.92,1.92,0,0,1,2.23-1.69c1.12,0,1.61.64,1.58,1.39a1.92,1.92,0,0,1,0,.3l-.21,1a1.94,1.94,0,0,1-2.24,1.69C119.18,61.19,118.64,60.55,118.67,59.79Zm2.84-1.47c0-.31-.17-.47-.57-.47a.75.75,0,0,0-.81.64l-.22,1a1.25,1.25,0,0,0,0,.17c0,.3.17.47.57.47a.74.74,0,0,0,.81-.64l.22-1A1.33,1.33,0,0,0,121.51,58.32Z" style="fill:#005fa8"/><path d="M130.12,58.26a.84.84,0,0,0,0-.13c0-.09,0-.12-.16-.12a3.63,3.63,0,0,0-1.1.4l-.57,2.69h-1.2l.6-2.84a.89.89,0,0,0,0-.13c0-.09,0-.12-.16-.12a3.62,3.62,0,0,0-1.1.39l-.57,2.7H124.7l.86-4.08,1.07-.18,0,.46a4,4,0,0,1,1.67-.47.64.64,0,0,1,.7.49,3.42,3.42,0,0,1,1.71-.49c.56,0,.75.32.73.85a2.51,2.51,0,0,1-.06.48l-.62,2.94h-1.21Z" style="fill:#005fa8"/><path d="M131.81,59.79a1.7,1.7,0,0,1,0-.29l.21-1a1.92,1.92,0,0,1,2.23-1.69c1.12,0,1.61.64,1.58,1.39a1.92,1.92,0,0,1,0,.3l-.21,1a1.94,1.94,0,0,1-2.24,1.69C132.32,61.19,131.79,60.55,131.81,59.79Zm2.84-1.47c0-.31-.17-.47-.57-.47a.75.75,0,0,0-.81.64l-.22,1a1.25,1.25,0,0,0,0,.17c0,.3.17.47.57.47a.74.74,0,0,0,.81-.64l.22-1A1.32,1.32,0,0,0,134.66,58.32Z" style="fill:#005fa8"/><path d="M139.08,57.93c-.54.29-.74.4-1.23.7l-.52,2.46h-1.21L137,57l1.07-.18,0,.57a9.34,9.34,0,0,1,1.11-.57Z" style="fill:#005fa8"/><path d="M139.36,58.41a1.74,1.74,0,0,1,2-1.58c.79,0,1.38.34,1.35,1s-.46,1.19-1.5,1.5c-.51.15-.52.15-.88.25l-.06.29c0,.15,0,.29.2.29a4.87,4.87,0,0,0,1.66-.46l.2.86a4.25,4.25,0,0,1-2.06.58c-.87,0-1.22-.38-1.2-1.09a2.79,2.79,0,0,1,.07-.51Zm2.2-.4c0-.15-.12-.24-.34-.24-.44,0-.58.25-.65.59l-.06.29c.21-.05.3-.07.55-.15S141.55,58.26,141.56,58Z" style="fill:#005fa8"/><path d="M143.19,59.67h1.21l-.3,1.43h-1.21Z" style="fill:#005fa8"/><path d="M32.22,36.65c-2,2.94-1.79,6.76-.23,9.89l.11.22.07.14,0,.08.08.15.15.25.09.14.17.27.08.11.25.36h0l0,.06.23.3.08.11.21.26.08.1.29.34h0l.3.32.1.1.24.23.1.09.33.3h0l.06,0,.3.25.12.1.25.19.13.1.28.2.1.07,0,0,.27.18.12.08.42.26.12.07.32.18.18.09.22.12.05,0,.09,0,.36.17.07,0,.42.17.1,0,.4.15,0,0,.44.14.11,0a4.44,4.44,0,0,0,.46.13c9.89,1.8,12.77-5.95,12.77-5.95-2.42,3.14-6.7,4-10.76,3.05l-.45-.13-.11,0-.44-.14-.06,0-.38-.14L41,50l-.42-.17-.08,0-.35-.16-.1,0-.27-.14-.18-.09-.33-.18-.11-.06-.42-.26-.11-.08-.3-.2-.1-.07-.28-.2-.13-.1-.26-.2-.11-.09-.32-.27,0,0-.34-.31-.1-.09L36.41,47l-.1-.1-.3-.31,0,0-.3-.34-.08-.09-.22-.27-.08-.1-.25-.33c-2.25-3.07-3.07-7.31-1.26-10.8" style="fill:#005fa8"/><path d="M38.57,34.18a7.1,7.1,0,0,0-.25,7.23A8.83,8.83,0,0,0,39,42.5a5.07,5.07,0,0,0,.76,1l.33.35.09.09.34.31h0l.4.33.09.07.41.3h0l.19.13.09.06.31.19,0,0,.27.15.1.05.19.1h0l.39.18.09,0,.32.13.14.05.3.1.14,0a3,3,0,0,0,.43.12c7.64,1.27,9.4-4.62,9.4-4.62a7.26,7.26,0,0,1-8,2.53l-.43-.13-.13,0-.3-.1-.14-.05-.32-.13-.09,0-.4-.18-.2-.1-.11-.06-.25-.14-.06,0L43.15,43,43.06,43l-.2-.13-.41-.3-.09-.07A9.17,9.17,0,0,1,39.24,38a6.9,6.9,0,0,1,.54-5.54" style="fill:#005fa8"/><path d="M43.91,32.32a4.45,4.45,0,0,0-.36,4.3A6.06,6.06,0,0,0,47,39.86l.19.07.09,0,.27.08c4.22.81,5.36-2.16,5.67-2.6-1,1.44-2.69,1.79-4.76,1.29a5,5,0,0,1-.5-.16c-.2-.07-.4-.15-.6-.25a6.25,6.25,0,0,1-1-.64c-1.85-1.4-3-4.08-1.79-6.26" style="fill:#005fa8"/><path d="M141.66,38.34l.17.7a.28.28,0,0,1-.29.36" style="fill:#353332"/><path d="M128.36,37.14l-.13.6-1.46,6.83,1.54-7.2Z" style="fill:#353332"/><polygon points="84.62 41.71 83.81 44.57 84.62 41.71 84.62 41.71" style="fill:#353332"/><path d="M141.83,39l-.42-1.78c-.33-1.29-1.27-1.9-3.39-1.9h-8.89a.42.42,0,0,0-.45.29l-3.37,16a1.1,1.1,0,0,0,0,.45c0,.1.42.08.62.08H129a3.28,3.28,0,0,0,.69,0c.11,0,.16-.35.21-.55L131,46l1.33-6.22a.48.48,0,0,1,.45-.36h8.8a.28.28,0,0,0,.29-.36" style="fill:#353332"/><path d="M154.35,32.55h-3.9a.89.89,0,0,0-.58.39L143,43c-.12.17-.25.16-.29,0l-.51-2.21a.49.49,0,0,0-.46-.36h-4.41a.28.28,0,0,0-.27.37l2,6.92a1.63,1.63,0,0,1,0,.72l-.92,3.51c0,.2.08.26.29.26h4.35c.2,0,.42-.06.47-.26l.92-3.56a2.13,2.13,0,0,1,.31-.63l11.19-14.83c.13-.16.11-.36-.1-.36Z" style="fill:#353332"/><path d="M108.49,35.38h-4c-.2,0-.41.07-.45.27l-1.31,6.15-1.31,5.89c0,.2-.24.19-.45.19H98.38c-2.58,0-2.29-1.63-1.76-4.08l1.66-8.14c0-.2-.1-.27-.3-.27H94.19c-.2,0-.41.07-.45.27l-1.52,8.13c-.76,4.4-.78,8.27,4.32,8.4h8.05c.21,0,.41-.07.45-.27l1.73-8.16,1.72-8.19S108.56,35.38,108.49,35.38Z" style="fill:#353332"/><path d="M68.89,35.36H64.63c-.2,0-.41,0-.46.25l-.77,3.33a.28.28,0,0,0,.29.35h4.08a.51.51,0,0,0,.45-.38L69,35.56S69,35.36,68.89,35.36Z" style="fill:#353332"/><path d="M63.42,40.42a.49.49,0,0,0-.45.36l-.57,2.54-1.28,5.86s-.68,3.12-.75,3.31c0,0-.57,2.25-1.95,2.16A12.32,12.32,0,0,1,57,54.46h0c-.38-.12-.41.28-.46.48l-.85,3.65A.3.3,0,0,0,56,59a27.92,27.92,0,0,0,3.13.26h.21c3.2,0,4.89-1.88,6-7l1.27-5.92,1.19-5.5a.3.3,0,0,0-.28-.39" style="fill:#353332"/><path d="M118.55,35.34c-7.17,0-8.88,4.43-9.83,8.82s-.87,8,6.55,8h6.79a.5.5,0,0,0,.44-.39l.73-2.84c0-.2-.09-.26-.3-.26h-6.67c-2.42,0-3.28-.74-3.2-2.42,0-.19.22-.67.42-.67h10.28c.45,0,.47-.27.47-.27,1-4.72,1.11-10-5.67-10m1.89,7c0,.22-.7.18-.7.18l-5.59,0c-.19,0-.25-.27-.26-.46a2.41,2.41,0,0,1,0-.29c.43-1.5,1.72-2.35,3.76-2.35,2.3,0,2.79,1.14,2.79,2.41" style="fill:#353332"/><path d="M87.56,47.56A47.75,47.75,0,0,0,90,39.86c.62-3.77-1.26-9.24-8.56-9.24s-10.4,5.22-11.61,10.9.37,10.7,7.59,10.66h11a.52.52,0,0,0,.47-.36l.93-3.53a.28.28,0,0,0-.28-.36H87.79a.23.23,0,0,1-.25-.26.25.25,0,0,1,0-.08m-3.79-3-.83,2.82a.52.52,0,0,1-.49.33H78.19c-3.23,0-4-2.5-3.23-6.23s2.35-6.17,5.53-6.41c4.35-.33,5.24,2.74,4.19,6.27Z" style="fill:#353332"/></g><g id="jQueryロゴ"><g id="w3c-logo"><path d="M46.3,133.05l4.58,15.56,4.58-15.56h3.31l-7.57,25.56h-.32l-4.73-15.84-4.73,15.84h-.32l-7.57-25.56h3.31l4.57,15.56,3.09-10.48L43,133.05H46.3Z" style="fill:#005a9c"/><path d="M68.17,150.41a9.22,9.22,0,0,1-1.84,5.84,6,6,0,0,1-8.63,1,8.27,8.27,0,0,1-2.43-3.8l2.59-1.07a5.89,5.89,0,0,0,1.5,2.29,3.17,3.17,0,0,0,2.19.84A2.64,2.64,0,0,0,63.79,154a6.65,6.65,0,0,0,.91-3.57,5.7,5.7,0,0,0-1-3.57,4.21,4.21,0,0,0-3.56-1.48H58.9v-1.51l4.42-7.64H58l-1.48,2.52h-.95v-5.68H67.86v1.55l-4.67,8a6.51,6.51,0,0,1,3.72,2.87A9.24,9.24,0,0,1,68.17,150.41Z" style="fill:#005a9c"/><path d="M81,132.91l.54,3.26-1.9,3.63a7,7,0,0,0-1.94-2.39,3,3,0,0,0-2.73-.66c-1.34.28-2.85,1.87-3.51,3.84a13.15,13.15,0,0,0-.83,4.54,10.38,10.38,0,0,0,.22,2.67,11.92,11.92,0,0,1-1.14-5.26,13.2,13.2,0,0,1,1.39-6.25,5,5,0,0,1,3.46-2.93,3.91,3.91,0,0,1,3,1.11,9.52,9.52,0,0,1,1.6,2.16Z" style="fill:#221b0a"/><path d="M81.25,151.37a16,16,0,0,1-1.36,2.08,8.37,8.37,0,0,1-2.62,2.11,4.87,4.87,0,0,1-2.91.5,5.69,5.69,0,0,1-2.57-1,10,10,0,0,1-1.86-1.84c-.54-.76-1.38-2.27-1.38-2.27s.47,1.52.76,2.16a14.06,14.06,0,0,0,1.42,2.49,6.77,6.77,0,0,0,4,2.86,5.14,5.14,0,0,0,3.76-.77,10.31,10.31,0,0,0,1.53-1.32,11.56,11.56,0,0,0,1.18-1.56c.18-.29.48-.87.48-.87Z" style="fill:#221b0a"/><path d="M83.81,130.93a1.72,1.72,0,1,1-1.72,1.72,1.71,1.71,0,0,1,1.72-1.72Zm0,.34a1.38,1.38,0,1,0,1.32,1.38,1.34,1.34,0,0,0-1.32-1.38Zm-.29,2.37h-.4v-1.91a3.6,3.6,0,0,1,.61-.05,1,1,0,0,1,.65.15.49.49,0,0,1,.17.41.46.46,0,0,1-.37.44v0c.17,0,.27.18.3.47a1.56,1.56,0,0,0,.11.47h-.42a1.59,1.59,0,0,1-.12-.5.31.31,0,0,0-.36-.29h-.18v.79Zm0-1.1h.19c.24,0,.42-.08.42-.27S84,132,83.73,132h-.22Z" style="fill:#221b0a"/></g><g id="svgstar"><path id="svgbar" d="M89.59,144.35a2,2,0,1,0,0,2.89h15.32a2,2,0,1,0,0-2.89Z" style="fill:#eda921;stroke:#000;stroke-width:3.7931491125877055px"/><path id="svgbar-2" data-name="svgbar" d="M92.85,139.36a2,2,0,1,0-2,2l10.83,10.83a2,2,0,1,0,2-2Z" style="fill:#eda921;stroke:#000;stroke-width:3.7931491125877055px"/><path id="svgbar-3" data-name="svgbar" d="M98.69,138.14a2,2,0,1,0-2.89,0v15.32a2,2,0,1,0,2.89,0Z" style="fill:#eda921;stroke:#000;stroke-width:3.7931491125877055px"/><path id="svgbar-4" data-name="svgbar" d="M103.68,141.4a2,2,0,1,0-2-2L90.81,150.19a2,2,0,1,0,2,2Z" style="fill:#eda921;stroke:#000;stroke-width:3.7931491125877055px"/></g><g id="logo"><g id="svgstar-2" data-name="svgstar"><path id="svgbar-5" data-name="svgbar" d="M89.59,144.35a2,2,0,1,0,0,2.89h15.32a2,2,0,1,0,0-2.89Z" style="fill:#eda921"/><path id="svgbar-6" data-name="svgbar" d="M92.85,139.36a2,2,0,1,0-2,2l10.83,10.83a2,2,0,1,0,2-2Z" style="fill:#eda921"/><path id="svgbar-7" data-name="svgbar" d="M98.69,138.14a2,2,0,1,0-2.89,0v15.32a2,2,0,1,0,2.89,0Z" style="fill:#eda921"/><path id="svgbar-8" data-name="svgbar" d="M103.68,141.4a2,2,0,1,0-2-2L90.81,150.19a2,2,0,1,0,2,2Z" style="fill:#eda921"/></g></g><g id="SVG-label"><g id="SVG"><path id="S" d="M115.65,145.88a7.51,7.51,0,1,1,12.82-5.31h-4.4a3.11,3.11,0,1,0-5.31,2.2h0a3.3,3.3,0,0,0,2.2.91h0a8.53,8.53,0,0,1,5.31,2.2h0a7.51,7.51,0,1,1-12.82,5.31h4.4a3.11,3.11,0,1,0,5.31-2.2h0a4,4,0,0,0-2.2-.91h0a9.24,9.24,0,0,1-5.31-2.2Z" style="fill:#005a9c"/><path id="V" d="M143.49,133.06l-5.31,25.65h-4.4l-5.31-25.65h4.4l3.11,15,3.11-15Z" style="fill:#005a9c"/><path id="G" d="M151,143.68h7.51v7.51h0a7.51,7.51,0,1,1-15,0h0V140.57h0a7.51,7.51,0,0,1,15,0h-4.4a3.11,3.11,0,1,0-6.22,0v10.62h0a3.11,3.11,0,0,0,6.22,0h0v-3.11H151v-4.4Z" style="fill:#005a9c"/></g></g></g><g id="Union.jsロゴ"><g id="c-foot-bottom"><path d="M267.64,116.47l12.4,7.15-14.82,8.56-12.28-7.08,14.7-8.62m0-.14-14.94,8.76,12.52,7.22,15.06-8.7-12.64-7.29Z" style="fill:#333"/></g><g id="c-foot-back__right"><path d="M267.81,110.85,280,117.91v5.5l-12.31-7.1.07-5.46m-.12-.21-.08,5.73,12.55,7.24v-5.78l-12.47-7.19Z" style="fill:#333"/></g><g id="c-foot-back__left"><path d="M267.67,111v5.44l-14.82,8.64v-5.57L267.67,111m.12-.21-15.06,8.65v5.85l15.06-8.78v-5.72Z" style="fill:#333"/></g><g id="c-foot-flont__right"><path d="M280.16,118.22v5.44l-14.82,8.64v-5.53l14.82-8.56m.12-.21-15.06,8.7v5.81l15.06-8.78V118Z" style="fill:#333"/></g><g id="c-foot-flont__left"><path d="M252.85,119.71l12.25,7.07v5.5l-12.3-7.1.05-5.47m-.12-.21-.05,5.75,12.54,7.23v-5.78l-12.49-7.2Z" style="fill:#333"/></g><g id="c-foot-top"><path d="M267.64,110.87,280,118l-14.82,8.56L253,119.51l14.68-8.64m0-.14-14.91,8.78,12.49,7.2,15.06-8.7-12.63-7.29Z" style="fill:#333"/></g><g id="c-knee-bottom"><path d="M267.55,110.75l12.6,7.33-12.37,7.33-12.39-7.56,12.15-7.1m0-.14-12.39,7.24,12.62,7.7,12.61-7.47-12.84-7.47Z" style="fill:#333"/></g><g id="c-knee-back__right"><path d="M267.68,93.59l12.6,7.28V118l-12.37-7.24-.23-17.12m-.12-.21.23,17.4,12.61,7.38V100.8l-12.84-7.42Z" style="fill:#333"/></g><g id="c-knee-back__left"><path d="M267.44,93.58l.23,17.13L255.47,118l-.17-17.33,12.14-7.06m.12-.21-12.37,7.2.17,17.61,12.44-7.4-.23-17.4Z" style="fill:#333"/></g><g id="c-knee-flont__right"><path d="M280.27,101v17.09l-12.37,7.07V108l12.37-7m.12-.21L267.79,108v17.39l12.61-7.21V100.8Z" style="fill:#333"/></g><g id="c-knee-flont__left"><path d="M255.29,100.78,267.67,108v17.11L255.3,117.9V100.78m-.12-.21V118l12.61,7.4V108l-12.62-7.4Z" style="fill:#333"/></g><g id="c-knee-top"><path d="M267.55,93.48l12.6,7.33-12.37,7.33-12.39-7.56,12.15-7.1m0-.14-12.39,7.24,12.62,7.7,12.61-7.47-12.84-7.47Z" style="fill:#333"/></g><g id="c-foot-bottom-2" data-name="c-foot-bottom"><path d="M255.27,109.23l12.4,7.15-14.82,8.56-12.28-7.08,14.7-8.62m0-.14-14.94,8.76,12.52,7.22,15.06-8.7-12.64-7.29Z" style="fill:#333"/></g><g id="c-foot-back__right-2" data-name="c-foot-back__right"><path d="M255.43,103.62l12.23,7.06v5.5l-12.31-7.1.07-5.46m-.12-.21-.08,5.73,12.55,7.24V110.6l-12.47-7.19Z" style="fill:#333"/></g><g id="c-foot-back__left-2" data-name="c-foot-back__left"><path d="M255.29,103.79v5.44l-14.82,8.64v-5.57l14.82-8.51m.12-.21-15.06,8.65v5.85l15.06-8.78v-5.72Z" style="fill:#333"/></g><g id="c-foot-flont__right-2" data-name="c-foot-flont__right"><path d="M267.78,111v5.44L253,125.07v-5.53L267.78,111m.12-.21-15.06,8.7v5.81l15.06-8.78v-5.72Z" style="fill:#333"/></g><g id="c-foot-flont__left-2" data-name="c-foot-flont__left"><path d="M240.47,112.48l12.25,7.07V125l-12.3-7.1.05-5.47m-.12-.21L240.3,118l12.54,7.23v-5.78l-12.49-7.2Z" style="fill:#333"/></g><g id="c-foot-top-2" data-name="c-foot-top"><path d="M255.27,103.63l12.39,7.15-14.82,8.56-12.25-7.07,14.68-8.64m0-.14-14.91,8.78,12.49,7.2,15.06-8.7-12.63-7.29Z" style="fill:#333"/></g><g id="c-knee-bottom-2" data-name="c-knee-bottom"><path d="M255.18,103.51l12.6,7.33-12.37,7.33L243,110.61l12.15-7.1m0-.14-12.39,7.24,12.62,7.7L268,110.85l-12.84-7.47Z" style="fill:#333"/></g><g id="c-knee-back__right-2" data-name="c-knee-back__right"><path d="M255.3,86.35l12.6,7.28v17.09l-12.37-7.24-.23-17.12m-.12-.21.23,17.4L268,110.92V93.56l-12.84-7.42Z" style="fill:#333"/></g><g id="c-knee-back__left-2" data-name="c-knee-back__left"><path d="M255.06,86.35l.23,17.13-12.2,7.26-.17-17.33,12.14-7.06m.12-.21-12.37,7.2.17,17.61,12.44-7.4-.23-17.4Z" style="fill:#333"/></g><g id="c-knee-flont__right-2" data-name="c-knee-flont__right"><path d="M267.9,93.76v17.09l-12.37,7.07V100.81l12.37-7m.12-.21-12.61,7.18v17.39L268,110.92V93.56Z" style="fill:#333"/></g><g id="c-knee-flont__left-2" data-name="c-knee-flont__left"><path d="M242.92,93.55l12.38,7.26v17.11l-12.37-7.26V93.55m-.12-.21v17.4l12.61,7.4V100.74l-12.62-7.4Z" style="fill:#333"/></g><g id="c-knee-top-2" data-name="c-knee-top"><path d="M255.18,86.24l12.6,7.33-12.37,7.33L243,93.34l12.15-7.1m0-.14-12.39,7.24,12.62,7.7L268,93.57,255.18,86.1Z" style="fill:#333"/></g><g id="c-waist-bottom"><path d="M256.38,85.79l24.83,14.32-14.82,8.56L241.53,94.33l14.85-8.54m0-.14-15.09,8.68,25.1,14.47,15.06-8.7L256.38,85.65Z" style="fill:#333"/></g><g id="c-waist-back__right"><path d="M256.23,80.28v5.44l-14.82,8.64V88.8l14.82-8.51m.12-.21-15.06,8.65v5.85l15.06-8.78V80.07Z" style="fill:#333"/></g><g id="c-waist-back__left"><path d="M256.35,80.06,281.21,94.4v5.5L256.35,85.56v-5.5m-.12-.21v5.78l25.1,14.47V94.33l-25.1-14.47Z" style="fill:#333"/></g><g id="c-waist-flont__right"><path d="M241.41,88.93l24.86,14.34v5.5L241.41,94.43v-5.5m-.12-.21V94.5L266.39,109V103.2l-25.1-14.47Z" style="fill:#333"/></g><g id="c-waist-flont__left"><path d="M281.32,94.71v5.44l-14.82,8.64v-5.53l14.82-8.56m.12-.21-15.06,8.7V109l15.06-8.78V94.5Z" style="fill:#333"/></g><g id="c-waist-top"><path d="M256.38,80.19,281.2,94.5l-14.82,8.56L241.53,88.73l14.85-8.54m0-.14-15.09,8.68,25.1,14.47,15.06-8.7L256.38,80Z" style="fill:#333"/></g><g id="c-body-bottom"><path d="M256.38,80.19,281.2,94.5l-14.82,8.56L241.53,88.73l14.85-8.54m0-.14-15.09,8.68,25.1,14.47,15.06-8.7L256.38,80Z" style="fill:#333"/></g><g id="c-body-back__right"><path d="M256.47,51.29l24.8,14.22.06,28.79L256.47,80V51.29m-.12-.21V80l25.1,14.47-.06-29.07-25-14.36Z" style="fill:#333"/></g><g id="c-body-back__left"><path d="M256.34,51.26V79.93L241.53,88.6l0-28.7,14.79-8.64m.12-.21-15,8.78,0,29L256.46,80V51.05Z" style="fill:#333"/></g><g id="c-body-flont__right"><path d="M281.32,65.73V94.41L266.51,103l0-28.61,14.79-8.64m.12-.21-15,8.78,0,28.89,15.06-8.73V65.53Z" style="fill:#333"/></g><g id="c-body-flont__left"><path d="M241.41,59.93l24.92,14.45L266.27,103,241.41,88.71V59.93m-.12-.21V88.78l25.1,14.42.06-28.89L241.29,59.72Z" style="fill:#333"/></g><g id="c-body-top"><path d="M256.35,51.2l24.86,14.3-14.79,8.67L241.53,59.72l14.82-8.52m0-.14-15.06,8.66,25.13,14.59,15-8.81-25.1-14.44Z" style="fill:#333"/></g><g id="c-screw-right"><g id="c-screw-back"><path d="M263.29,74.44a1.07,1.07,0,0,1,.53.17A2.72,2.72,0,0,1,265,76.66c0,.46-.23.74-.59.74a1.1,1.1,0,0,1-.51-.15,2.62,2.62,0,0,1-1.22-2.05c0-.48.22-.76.58-.76m0-.12c-.41,0-.7.32-.7.88a2.72,2.72,0,0,0,1.28,2.16,1.21,1.21,0,0,0,.57.16c.42,0,.71-.32.71-.86a2.82,2.82,0,0,0-1.28-2.16,1.18,1.18,0,0,0-.59-.18Z" style="fill:#333"/></g><g id="c-screw-flont"><path d="M263.17,74.56a1.07,1.07,0,0,1,.53.17,2.72,2.72,0,0,1,1.23,2.06c0,.46-.23.74-.59.74a1.1,1.1,0,0,1-.51-.15,2.62,2.62,0,0,1-1.22-2.05c0-.48.22-.76.58-.76m0-.12c-.41,0-.7.32-.7.88a2.72,2.72,0,0,0,1.28,2.16,1.21,1.21,0,0,0,.57.16c.42,0,.71-.32.71-.86a2.82,2.82,0,0,0-1.28-2.16,1.18,1.18,0,0,0-.59-.18Z" style="fill:#333"/></g></g><g id="c-screw-left"><g id="c-screw-back-2" data-name="c-screw-back"><path d="M243.21,62.77a1.07,1.07,0,0,1,.53.17A2.72,2.72,0,0,1,245,65c0,.46-.23.74-.59.74a1.1,1.1,0,0,1-.51-.15,2.62,2.62,0,0,1-1.22-2.05c0-.48.22-.76.58-.76m0-.12c-.41,0-.7.32-.7.88a2.72,2.72,0,0,0,1.28,2.16,1.21,1.21,0,0,0,.57.16c.42,0,.71-.32.71-.86a2.82,2.82,0,0,0-1.28-2.16,1.18,1.18,0,0,0-.59-.18Z" style="fill:#333"/></g><g id="c-screw-flont-2" data-name="c-screw-flont"><path d="M243.09,62.88a1.07,1.07,0,0,1,.53.17,2.72,2.72,0,0,1,1.23,2.06c0,.46-.23.74-.59.74a1.1,1.1,0,0,1-.51-.15,2.62,2.62,0,0,1-1.22-2.05c0-.48.22-.76.58-.76m0-.12c-.41,0-.7.32-.7.88a2.72,2.72,0,0,0,1.28,2.16,1.21,1.21,0,0,0,.57.16c.42,0,.71-.32.71-.86a2.82,2.82,0,0,0-1.28-2.16,1.18,1.18,0,0,0-.59-.18Z" style="fill:#333"/></g></g><g id="c-arm__hand"><g id="c-hand-bottom"><path d="M245.1,79.32l4.8,2.79-4.8,2.79-4.8-2.79,4.8-2.79m0-.14-5,2.93,5,2.93,5-2.93-5-2.93Z" style="fill:#333"/></g><g id="c-hand-back__right"><path d="M245.22,79.36l4.8,2.82v5.1l-.31.16-3.78-2.2L245.22,84V79.36m-.12-.21V84l.74,1.3,3.87,2.25.43-.23V82.11l-5-3Z" style="fill:#333"/></g><g id="c-hand-back__left"><path d="M245,79.35v4.58l-4.8,2.83V82.14l4.8-2.79m.12-.21-5,2.93V87l5-3V79.14Z" style="fill:#333"/></g><g id="c-hand-flont__right"><path d="M250,82.32v4.93L245.22,90V85.11l4.8-2.79m.12-.21-5,2.93v5.2l5-2.92V82.11Z" style="fill:#333"/></g><g id="c-hand-back__left--slope"><path d="M245.06,84.16l.62,1.13-4.85,2.8-.6-1.07,4.83-2.85m0-.17-5,3,.72,1.28,5.06-2.92L245.1,84Z" style="fill:#333"/></g><g id="c-hand-flont__left"><path d="M240.18,82.32l4.8,2.79V90.2l-.31.18-3.8-2.21-.69-1.28V82.32m-.12-.21v4.8l.72,1.34,3.89,2.26.43-.25V85l-5-2.93Z" style="fill:#333"/></g><g id="c-hand-top"><path d="M245.84,85.48l3.68,2.08-4.85,2.82L241,88.26l4.82-2.78m0-.14-5.06,2.92,3.88,2.26,5.09-3-3.92-2.22Z" style="fill:#333"/></g></g><g id="c-arm__wrist"><g id="c-wrist-bottom"><path d="M246,77.63l7.29,4.24-9.39,5.41L236.57,83,246,77.63m0-.14L236.33,83l7.53,4.38,9.63-5.54L246,77.49Z" style="fill:#333"/></g><g id="c-wrist-back__right"><path d="M246.08,63.52l7.29,4.24V81.66l-7.29-4.24V63.52m-.12-.21V77.49l7.53,4.38V67.69L246,63.31Z" style="fill:#333"/></g><g id="c-wrist-back__left"><path d="M245.84,63.52V77.42l-9.39,5.41V68.92l9.39-5.41m.12-.21-9.63,5.54V83L246,77.49V63.31Z" style="fill:#333"/></g><g id="c-wrist-flont__right"><path d="M253.37,67.89V81.8L244,87.21V73.3l9.39-5.41m.12-.21-9.63,5.54V87.41l9.63-5.54V67.69Z" style="fill:#333"/></g><g id="c-wrist-flont__left"><path d="M236.45,69.06l7.29,4.24V87.2L236.45,83V69.06m-.12-.21V83l7.53,4.38V73.23l-7.53-4.38Z" style="fill:#333"/></g><g id="c-wrist-top"><path d="M246,63.62l7.29,4.24-9.39,5.41L236.57,69,246,63.62m0-.14L236.33,69l7.53,4.38,9.63-5.54L246,63.48Z" style="fill:#333"/></g></g><g id="c-arm__elbow"><g id="c-elobow-bottom"><path d="M245.1,65.67l4.8,2.79-4.8,2.79-4.8-2.79,4.8-2.79m0-.14-5,2.93,5,2.93,5-2.93-5-2.93Z" style="fill:#333"/></g><g id="c-elobow-back__right"><path d="M245.22,64.22,250,67v1.25l-4.8-2.79V64.22M245.1,64v1.52l5,2.93V66.94l-5-2.93Z" style="fill:#333"/></g><g id="c-elobow-back__left"><path d="M245,64.22v1.25l-4.8,2.79V67l4.8-2.79m.12-.21-5,2.93v1.52l5-2.93V64Z" style="fill:#333"/></g><g id="c-elobow-flont__right"><path d="M250,67.15v1.25l-4.8,2.79V69.94l4.8-2.79m.12-.21-5,2.93v1.52l5-2.93V66.94Z" style="fill:#333"/></g><g id="c-elobow-flont__left"><path d="M240.18,67.15l4.8,2.79v1.25l-4.8-2.79V67.15m-.12-.21v1.52l5,2.93V69.87l-5-2.93Z" style="fill:#333"/></g><g id="c-elobow-top"><path d="M245.1,64.15l4.8,2.79-4.8,2.79-4.8-2.79,4.8-2.79m0-.14-5,2.93,5,2.93,5-2.93-5-2.93Z" style="fill:#333"/></g></g><g id="c-arm__sholder"><g id="c-sholder-bottom"><path d="M246,62l7.29,4.24-9.39,5.41-7.29-4.24L246,62m0-.14-9.63,5.54,7.53,4.38,9.63-5.54L246,61.85Z" style="fill:#333"/></g><g id="c-sholder-back__right"><path d="M246.08,50.68l.4.23h0l6.86,1.92V66l-7.29-4.24V50.68m-.12-.21V61.85l7.53,4.38V52.74l-6.95-1.94-.58-.34Z" style="fill:#333"/></g><g id="c-sholder-back__left"><path d="M245.84,50.68v11.1l-9.39,5.41V56.08l9.39-5.41m.12-.21L236.33,56V67.39L246,61.85V50.47Z" style="fill:#333"/></g><g id="c-sholder-flont__right"><path d="M253.37,53V66.16L244,71.56V58.36L253.37,53m.12-.21-9.63,5.54V71.77l9.63-5.54V52.74Z" style="fill:#333"/></g><g id="c-sholder-flont__left"><path d="M236.45,56.22l.4.23h0l1.76.49,5.1,1.42V71.56l-7.29-4.24V56.22m-.12-.21V67.39l7.53,4.38V58.29l-5.19-1.45-1.76-.49-.58-.34Z" style="fill:#333"/></g><g id="c-sholder-top--slope"><path d="M246,50.77l7.21,2-9.34,5.38-7.21-2L246,50.77m0-.13-9.63,5.54,7.53,2.1,9.63-5.54L246,50.64Z" style="fill:#333"/></g></g><g id="c-arm__hand-2" data-name="c-arm__hand"><g id="c-hand-bottom-2" data-name="c-hand-bottom"><path d="M278.19,104l3.65,2.12L277,108.86l-3.65-2.12,4.82-2.78m0-.14-5.06,2.92L277,109l5.06-2.92-3.88-2.26Z" style="fill:#333"/></g><g id="c-hand-back__left--slope-2" data-name="c-hand-back__left--slope"><path d="M277.76,103.53l.24.26-4.85,2.76-.23-.33,4.84-2.69m0-.15-5,2.8.37.53,5.08-2.89-.41-.45Z" style="fill:#333"/></g><g id="c-hand-back__right-2" data-name="c-hand-back__right"><path d="M277.91,98.07l4.8,2.79v4.72l-.63.36-3.81-2.21-.36-.4V98.07m-.12-.21v5.52l.41.45,3.88,2.26.75-.43v-4.86l-5-2.93Z" style="fill:#333"/></g><g id="c-hand-back__left-2" data-name="c-hand-back__left"><path d="M277.9,98.07v5.45l-4.8,2.79v-5.45l4.8-2.79m.12-.21-5,2.93v5.73l5-2.93V97.86Z" style="fill:#333"/></g><g id="c-hand-flont__right-2" data-name="c-hand-flont__right"><path d="M282.71,101v4.58l-4.8,2.77v-4.56l4.8-2.79m.12-.21-5,2.93v4.84l5-2.91v-4.86Z" style="fill:#333"/></g><g id="c-hand-flont__left-2" data-name="c-hand-flont__left"><path d="M272.87,101l4.8,2.79v4.7l-.65.37-3.8-2.21-.35-.51V101m-.12-.21v5.39l.39.56L277,109l.77-.44v-4.84l-5-2.93Z" style="fill:#333"/></g><g id="c-hand-top-2" data-name="c-hand-top"><path d="M277.79,98l4.8,2.79-4.8,2.79-4.8-2.79,4.8-2.79m0-.14-5,2.93,5,2.93,5-2.93-5-2.93Z" style="fill:#333"/></g></g><g id="c-arm__wrist-2" data-name="c-arm__wrist"><g id="c-wrist-bottom-2" data-name="c-wrist-bottom"><path d="M278.64,96.31l7.29,4.24L276.54,106l-7.29-4.24,9.39-5.41m0-.14L269,101.71l7.53,4.38,9.63-5.54-7.53-4.38Z" style="fill:#333"/></g><g id="c-wrist-back__right-2" data-name="c-wrist-back__right"><path d="M278.76,82.19l7.29,4.24v13.91l-7.29-4.24V82.19m-.12-.21V96.17l7.53,4.38V86.36L278.64,82Z" style="fill:#333"/></g><g id="c-wrist-back__left-2" data-name="c-wrist-back__left"><path d="M278.52,82.19V96.1l-9.39,5.41V87.6l9.39-5.41m.12-.21L269,87.53v14.18l9.63-5.54V82Z" style="fill:#333"/></g><g id="c-wrist-flont__right-2" data-name="c-wrist-flont__right"><path d="M286.05,86.57v13.91l-9.39,5.41V92l9.39-5.41m.12-.21-9.63,5.54v14.18l9.63-5.54V86.36Z" style="fill:#333"/></g><g id="c-wrist-flont__left-2" data-name="c-wrist-flont__left"><path d="M269.13,87.74,276.42,92v13.91l-7.29-4.24V87.74m-.12-.21v14.18l7.53,4.38V91.91L269,87.53Z" style="fill:#333"/></g><g id="c-wrist-top-2" data-name="c-wrist-top"><path d="M278.64,82.3l7.29,4.24-9.39,5.41-7.29-4.24,9.39-5.41m0-.14L269,87.7l7.53,4.38,9.63-5.54-7.53-4.38Z" style="fill:#333"/></g></g><g id="c-arm__elbow-2" data-name="c-arm__elbow"><g id="c-elobow-bottom-2" data-name="c-elobow-bottom"><path d="M277.79,84.11l4.8,2.79-4.8,2.79L273,86.9l4.8-2.79m0-.14-5,2.93,5,2.93,5-2.93-5-2.93Z" style="fill:#333"/></g><g id="c-elobow-back__right-2" data-name="c-elobow-back__right"><path d="M277.91,82.66l4.8,2.79V86.7l-4.8-2.79V82.66m-.12-.21V84l5,2.93V85.38l-5-2.93Z" style="fill:#333"/></g><g id="c-elobow-back__left-2" data-name="c-elobow-back__left"><path d="M277.67,82.66v1.25l-4.8,2.79V85.45l4.8-2.79m.12-.21-5,2.93V86.9l5-2.93V82.45Z" style="fill:#333"/></g><g id="c-elobow-flont__right-2" data-name="c-elobow-flont__right"><path d="M282.71,85.59v1.25l-4.8,2.79V88.38l4.8-2.79m.12-.21-5,2.93v1.52l5-2.93V85.38Z" style="fill:#333"/></g><g id="c-elobow-flont__left-2" data-name="c-elobow-flont__left"><path d="M272.87,85.59l4.8,2.79v1.25l-4.8-2.79V85.59m-.12-.21V86.9l5,2.93V88.31l-5-2.93Z" style="fill:#333"/></g><g id="c-elobow-top-2" data-name="c-elobow-top"><path d="M277.79,82.59l4.8,2.79-4.8,2.79L273,85.38l4.8-2.79m0-.14-5,2.93,5,2.93,5-2.93-5-2.93Z" style="fill:#333"/></g></g><g id="c-arm__sholder-2" data-name="c-arm__sholder"><g id="c-sholder-bottom-2" data-name="c-sholder-bottom"><path d="M278.64,80.66l7.29,4.24-9.39,5.41-7.29-4.24,9.39-5.41m0-.14L269,86.07l7.53,4.38,9.63-5.54-7.53-4.38Z" style="fill:#333"/></g><g id="c-sholder-back__right-2" data-name="c-sholder-back__right"><path d="M278.52,67.25V80.46l-9.39,5.41V72.66l9.39-5.41m.12-.21L269,72.59V86.07l9.63-5.54V67Z" style="fill:#333"/></g><g id="c-sholder-back__left-2" data-name="c-sholder-back__left"><path d="M278.76,67.31l6.75,6,.54.54V84.69l-7.29-4.24V67.31m-.12-.27V80.53l7.53,4.38V73.76l-.58-.57L278.64,67Z" style="fill:#333"/></g><g id="c-sholder-flont__right-2" data-name="c-sholder-flont__right"><path d="M269.13,72.85l6.77,6,.52.3v11.1L269.13,86V72.85m-.12-.27V86.07l7.53,4.38V79.07l-.58-.34L269,72.59Z" style="fill:#333"/></g><g id="c-sholder-flont__left-2" data-name="c-sholder-flont__left"><path d="M286.05,73.73v11.1l-9.39,5.41V79.14l9.39-5.41m.12-.21-9.63,5.54V90.45l9.63-5.54V73.52Z" style="fill:#333"/></g><g id="c-sholder-top--slope-2" data-name="c-sholder-top--slope"><path d="M278.63,67.19,286,73.68l-9.41,5.42-7.34-6.49,9.41-5.42m0-.15L269,72.59l7.53,6.65,9.63-5.54L278.64,67Z" style="fill:#333"/></g></g><g id="c-head"><g id="c-head-bottom"><path d="M261.37,54l14.82,8.56-14.82,8.56-14.82-8.56L261.37,54m0-.14-15.06,8.7,15.06,8.7,15.06-8.7-15.06-8.7Z" style="fill:#333"/></g><g id="c-head-back__right"><path d="M261.37,36.73l14.82,8.56V62.4l-14.7-8.56-.11-17.11m-.12-.21.12,17.39,14.94,8.7V45.21l-15.06-8.7Z" style="fill:#333"/></g><g id="c-head-back__left"><path d="M261.36,36.81l-.06,17-14.76,8.67V45.37l14.82-8.56m.12-.21-15.06,8.7V62.69l15-8.81.06-17.28Z" style="fill:#333"/></g><g id="c-head-flont__right"><path d="M276.3,45.45V62.57l-14.82,8.56V54l14.82-8.56m.12-.21-15.06,8.7V71.33l15.06-8.7V45.24Z" style="fill:#333"/></g><g id="c-head-flont__left"><path d="M246.43,45.45,261.25,54V71.12l-14.7-8.56-.11-17.11m-.12-.21.12,17.39,14.94,8.7V53.94l-15.06-8.7Z" style="fill:#333"/></g><g id="c-head-top"><path d="M261.37,36.69l14.82,8.56L261.37,53.8l-14.82-8.56,14.82-8.56m0-.14-15.06,8.7,15.06,8.7,15.06-8.7-15.06-8.7Z" style="fill:#333"/></g></g></g><path d="M246,144.91v5.33c0,1.4-.08,4.25-3.9,4.25s-3.88-2.84-3.88-4.23v-5.34H239v5.3c0,1.43.1,3.56,3.11,3.56s3.12-2.16,3.12-3.56v-5.3Z" style="fill:#333"/><path d="M248,154.29v-7h.74v1A2.61,2.61,0,0,1,251,147.1a2.29,2.29,0,0,1,2.1,1.08,4.06,4.06,0,0,1,.32,2.11v4h-.74v-3.92c0-1.18,0-2.6-1.75-2.6a2.13,2.13,0,0,0-1.86,1,2.84,2.84,0,0,0-.32,1.61v3.92Z" style="fill:#333"/><path d="M256.26,146h-1v-1h1Zm-.1,8.33h-.77v-7h.77Z" style="fill:#333"/><path d="M261.2,147.1a3.7,3.7,0,1,1-3.42,3.69A3.43,3.43,0,0,1,261.2,147.1Zm0,6.72a3,3,0,1,0-2.67-3A2.69,2.69,0,0,0,261.21,153.81Z" style="fill:#333"/><path d="M266.2,154.29v-7h.74v1a2.61,2.61,0,0,1,2.26-1.21,2.29,2.29,0,0,1,2.1,1.08,4.06,4.06,0,0,1,.32,2.11v4h-.74v-3.92c0-1.18,0-2.6-1.75-2.6a2.13,2.13,0,0,0-1.86,1,2.84,2.84,0,0,0-.32,1.61v3.92Z" style="fill:#333"/><path d="M274.78,153v1.33h-1.27V153Z" style="fill:#333"/><path d="M278,155.42c0,.59,0,2.06-1.69,2.06a2.59,2.59,0,0,1-1.1-.25l.08-.67a2.62,2.62,0,0,0,1.06.25c.88,0,.89-.74.89-1.26v-8.26H278Zm.1-9.46h-1v-1h1Z" style="fill:#333"/><path d="M283.59,148.13a3.15,3.15,0,0,0-1.46-.36c-.95,0-1.68.41-1.68,1.25s.41,1,1.86,1.44c1,.31,2,.74,2,2s-1.22,2-2.72,2a4.79,4.79,0,0,1-2.16-.49l.25-.66a4.06,4.06,0,0,0,1.92.48c1.05,0,2-.38,2-1.37s-.68-1.13-1.91-1.51c-1-.31-1.91-.65-1.91-1.88s1.08-2,2.44-2a3.71,3.71,0,0,1,1.64.37Z" style="fill:#333"/></g></g></g></g></svg>