<svg xmlns="http://www.w3.org/2000/svg" viewBox="0 0 473.17 457.43"><defs><style>.cls-1{opacity:0.1;}.cls-2{fill:#f8f8f8;}.cls-3{fill:#4d4d4d;}.cls-4{fill:#b2b2b2;}.cls-5{fill:#ccc;}.cls-6{fill:#7e7f7f;}.cls-7{fill:#e5e5e5;}.cls-8{fill:#c4c5c7;}.cls-9{fill:#a4a5a7;}.cls-10{fill:#333;}.cls-11{fill:#7f7f7f;}.cls-12{fill:#00558f;}.cls-13{fill:#0071bc;}.cls-14{fill:#005d9c;}.cls-15{fill:#d2d3d5;}.cls-16{fill:#c0c1c3;}.cls-17{fill:#fff;}.cls-18{fill:#095ca1;}.cls-19{fill:#0e70c2;}.cls-20{fill:#085493;}</style></defs><title>sample_bank</title><g id="レイヤー_2" data-name="レイヤー 2"><g id="polygon_bank"><polygon class="cls-1" points="190.85 457.44 473.17 324.38 452.06 213.56 241.92 164.24 29.77 286.53 190.85 457.44"/><polygon class="cls-2" points="29.81 286.7 219.82 396.4 409.83 286.7 219.82 177 29.81 286.7"/><polygon class="cls-3" points="111.32 285 219.82 222.35 328.33 285 219.82 347.64 111.32 285"/><polygon class="cls-4" points="325.67 286.7 219.97 347.64 220.04 274.51 325.67 213.56 325.67 286.7"/><polygon class="cls-5" points="114.67 286.7 220.03 347.64 220.14 274.51 114.67 213.56 114.67 286.7"/><polygon class="cls-5" points="220.22 411.19 29.77 301.2 29.77 286.53 220.22 396.51 220.22 411.19"/><polygon class="cls-2" points="220.25 411.07 205.35 419.68 14.9 309.69 29.8 301.09 220.25 411.07"/><polygon class="cls-5" points="205.35 434.35 14.9 324.37 14.9 309.69 205.35 419.68 205.35 434.35"/><polygon class="cls-2" points="205.32 434.14 190.42 442.74 0 332.99 14.91 324.38 205.32 434.14"/><polygon class="cls-5" points="190.62 457.44 0.17 347.45 0.17 332.78 190.62 442.76 190.62 457.44"/><polygon class="cls-4" points="409.67 286.59 409.67 330.78 190.67 457.44 190.67 442.73 205.23 434.14 205.3 419.68 220.23 411.07 220.13 396.51 409.67 286.59"/><polygon class="cls-6" points="64.67 273.2 43.17 285.55 64.67 297.96 86.22 285.58 64.67 273.2"/><polygon class="cls-7" points="64.67 263.2 43.17 275.55 64.67 287.96 86.22 275.58 64.67 263.2"/><polygon class="cls-4" points="86.67 285.58 64.67 297.96 64.67 287.96 86.67 275.58 86.67 285.58"/><polygon class="cls-5" points="43.67 285.58 64.67 297.96 64.67 287.96 43.67 275.58 43.67 285.58"/><polygon class="cls-7" points="58.67 282.54 51.67 275.58 51.67 174.58 58.67 181.54 58.67 282.54"/><rect class="cls-8" x="58.67" y="181.86" width="12" height="101"/><polygon class="cls-9" points="77.67 275.54 70.67 282.54 70.67 181.54 77.67 174.54 77.67 275.54"/><polygon class="cls-6" points="102.42 295.2 80.92 307.55 102.42 319.96 123.97 307.58 102.42 295.2"/><polygon class="cls-7" points="102.42 285.2 80.92 297.55 102.42 309.96 123.97 297.58 102.42 285.2"/><polygon class="cls-4" points="123.67 307.58 102.67 319.96 102.67 309.96 123.67 297.58 123.67 307.58"/><polygon class="cls-5" points="80.67 307.58 102.67 319.96 102.67 309.96 80.67 297.58 80.67 307.58"/><polygon class="cls-7" points="95.67 304.54 89.67 297.58 89.67 196.58 95.67 203.54 95.67 304.54"/><rect class="cls-8" x="95.67" y="203.86" width="13" height="101"/><polygon class="cls-9" points="115.67 297.54 108.67 304.54 108.67 203.54 115.67 196.54 115.67 297.54"/><polygon class="cls-10" points="149.61 295.86 171.21 308.33 171.22 256.21 149.61 243.73 149.61 295.86"/><polygon class="cls-6" points="177.92 339.2 156.42 351.55 177.92 363.96 199.47 351.58 177.92 339.2"/><polygon class="cls-7" points="177.92 329.2 156.42 341.55 177.92 353.96 199.47 341.58 177.92 329.2"/><polygon class="cls-4" points="199.67 351.58 177.67 363.96 177.67 353.96 199.67 341.58 199.67 351.58"/><polygon class="cls-5" points="156.67 351.58 177.67 363.96 177.67 353.96 156.67 341.58 156.67 351.58"/><polygon class="cls-7" points="171.67 348.54 165.67 341.58 165.67 240.58 171.67 247.54 171.67 348.54"/><rect class="cls-8" x="171.67" y="247.86" width="13" height="101"/><polygon class="cls-9" points="190.67 341.54 184.67 348.54 184.67 247.54 190.67 240.54 190.67 341.54"/><polygon class="cls-6" points="215.67 361.2 194.17 373.55 215.67 385.96 237.22 373.58 215.67 361.2"/><polygon class="cls-7" points="215.67 351.2 194.17 363.55 215.67 375.96 237.22 363.58 215.67 351.2"/><polygon class="cls-4" points="237.67 373.58 215.67 385.96 215.67 375.96 237.67 363.58 237.67 373.58"/><polygon class="cls-5" points="194.67 373.58 215.67 385.96 215.67 375.96 194.67 363.58 194.67 373.58"/><polygon class="cls-7" points="209.67 370.54 202.67 363.58 202.67 262.58 209.67 269.54 209.67 370.54"/><rect class="cls-8" x="209.67" y="269.86" width="12" height="101"/><polygon class="cls-9" points="228.67 363.54 221.67 370.54 221.67 269.54 228.67 262.54 228.67 363.54"/><polygon class="cls-6" points="253.67 339.2 232.17 351.55 253.67 363.96 275.22 351.58 253.67 339.2"/><polygon class="cls-7" points="253.67 329.2 232.17 341.55 253.67 353.96 275.22 341.58 253.67 329.2"/><polygon class="cls-4" points="275.67 351.58 253.67 363.96 253.67 353.96 275.67 341.58 275.67 351.58"/><polygon class="cls-5" points="232.67 351.58 253.67 363.96 253.67 353.96 232.67 341.58 232.67 351.58"/><polygon class="cls-7" points="247.67 348.54 240.67 341.58 240.67 240.58 247.67 247.54 247.67 348.54"/><rect class="cls-8" x="247.67" y="247.86" width="12" height="101"/><polygon class="cls-9" points="266.67 341.54 259.67 348.54 259.67 247.54 266.67 240.54 266.67 341.54"/><polygon class="cls-6" points="291.67 317.2 270.17 329.55 291.67 341.96 313.22 329.58 291.67 317.2"/><polygon class="cls-7" points="291.67 307.2 270.17 319.55 291.67 331.96 313.22 319.58 291.67 307.2"/><polygon class="cls-4" points="313.67 329.58 291.67 341.96 291.67 331.96 313.67 319.58 313.67 329.58"/><polygon class="cls-5" points="270.67 329.58 291.67 341.96 291.67 331.96 270.67 319.58 270.67 329.58"/><polygon class="cls-7" points="285.67 326.54 278.67 319.58 278.67 218.58 285.67 225.54 285.67 326.54"/><rect class="cls-8" x="285.67" y="225.86" width="12" height="101"/><polygon class="cls-9" points="304.67 319.54 297.67 326.54 297.67 225.54 304.67 218.54 304.67 319.54"/><polygon class="cls-6" points="329.67 295.2 308.17 307.55 329.67 319.96 351.22 307.58 329.67 295.2"/><polygon class="cls-7" points="329.67 285.2 308.17 297.55 329.67 309.96 351.22 297.58 329.67 285.2"/><polygon class="cls-4" points="351.67 307.58 329.67 319.96 329.67 309.96 351.67 297.58 351.67 307.58"/><polygon class="cls-5" points="308.67 307.58 329.67 319.96 329.67 309.96 308.67 297.58 308.67 307.58"/><polygon class="cls-7" points="323.67 304.54 316.67 297.58 316.67 196.58 323.67 203.54 323.67 304.54"/><rect class="cls-8" x="323.67" y="203.86" width="12" height="101"/><polygon class="cls-9" points="342.67 297.54 335.67 304.54 335.67 203.54 342.67 196.54 342.67 297.54"/><polygon class="cls-6" points="367.67 273.2 346.17 285.55 367.67 297.96 389.22 285.58 367.67 273.2"/><polygon class="cls-7" points="367.67 263.2 346.17 275.55 367.67 287.96 389.22 275.58 367.67 263.2"/><polygon class="cls-4" points="389.67 285.58 367.67 297.96 367.67 287.96 389.67 275.58 389.67 285.58"/><polygon class="cls-5" points="346.67 285.58 367.67 297.96 367.67 287.96 346.67 275.58 346.67 285.58"/><polygon class="cls-7" points="361.67 282.54 354.67 275.58 354.67 174.58 361.67 181.54 361.67 282.54"/><rect class="cls-8" x="361.67" y="181.86" width="12" height="101"/><polygon class="cls-9" points="380.67 275.54 373.67 282.54 373.67 181.54 380.67 174.54 380.67 275.54"/><polygon class="cls-4" points="29.81 164.94 219.82 274.64 409.83 164.94 219.82 55.23 29.81 164.94"/><polygon class="cls-11" points="29.81 139.4 219.82 249.24 409.83 139.4 219.82 29.7 29.81 139.4"/><polygon class="cls-7" points="219.99 249.24 219.67 262.04 219.67 274.81 124.67 219.87 29.67 164.94 29.67 152.12 29.67 139.3 124.59 194.29 219.99 249.24"/><polygon class="cls-12" points="219.75 249.24 219.22 274.81 410.67 164.94 410.67 139.3 219.75 249.24"/><polygon class="cls-7" points="29.81 139.3 219.82 249.24 125 109.98 29.81 139.3"/><polygon class="cls-5" points="221.3 29.32 410.82 139.3 316.48 0 221.3 29.32"/><polygon class="cls-13" points="316.48 0 125 109.98 29.81 139.3 221.3 29.32 316.48 0"/><polygon class="cls-14" points="316.48 0 410.82 139.3 219.82 249.24 125 109.98 316.48 0"/><polygon class="cls-15" points="124.08 129.9 63.04 148.7 184.8 219.16 124.08 129.9"/><polygon class="cls-2" points="74.11 145.29 63.04 148.7 184.8 219.16 173.15 202.03 74.11 145.29"/><path class="cls-16" d="M133.34,171.33c-5,2.9-13.17-1.83-18.21-10.55s-5.05-18.15,0-21a6.2,6.2,0,0,1,1.45-.6c5-1.4,12.18,3.23,16.76,11.16s5,16.44,1.28,20.1A6.2,6.2,0,0,1,133.34,171.33Z"/><path class="cls-17" d="M118.67,158.64c-4.38-7.59-5-15.69-1.74-19.59-.13,0-.27,0-.39.08a6.2,6.2,0,0,0-1.45.6c-5,2.9-5,12.32,0,21s13.19,13.45,18.21,10.55a6.2,6.2,0,0,0,1.24-.95c.16-.15.29-.33.44-.5C130,170.93,123.12,166.35,118.67,158.64Z"/><polygon class="cls-9" points="139.79 301.44 149.61 295.86 149.61 243.73 139.79 238.06 139.79 301.44"/><polygon class="cls-18" points="166.31 240.44 84.8 192.75 84.8 169.26 166.31 216.58 166.31 240.44"/><polygon class="cls-19" points="87.4 167.81 84.8 169.26 166.31 216.58 169.25 215.3 87.4 167.81"/><polygon class="cls-20" points="166.31 216.58 166.31 240.44 169.26 238.64 169.25 215.3 166.31 216.58"/><polygon class="cls-7" points="149.61 295.86 139.79 301.44 171.44 319.71 171.21 308.33 149.61 295.86"/><path class="cls-17" d="M108.75,189.38a5.83,5.83,0,0,1,.68,2.66,2,2,0,0,1-.69,1.79,1.92,1.92,0,0,1-1.13.19,7.62,7.62,0,0,1,1.71,2.3,5.85,5.85,0,0,1,.58,2.51,2.71,2.71,0,0,1-.66,2,1.83,1.83,0,0,1-1.05.56,3.21,3.21,0,0,1-1.68-.22,13.81,13.81,0,0,1-2.1-1l-6.69-3.86V181.43l7.17,4.14A9.7,9.7,0,0,1,108.75,189.38Zm-8.06-3.66V189l3.61,2.08a3.18,3.18,0,0,0,1.57.54q.6,0,.6-1a2.51,2.51,0,0,0-.8-1.83,10.09,10.09,0,0,0-1.75-1.24Zm0,5.73v4l3.6,2.08a4.13,4.13,0,0,0,1.5.61q1,.08,1-1.29a3,3,0,0,0-.95-2.14,7,7,0,0,0-1.48-1.11Z"/><path class="cls-17" d="M116.25,192.12l3.51,2L125,212l-3.36-1.94-1-3.62-5.47-3.15-1,2.47-3.24-1.87Zm-.2,9.11,3.8,2.2L118,196.51Z"/><path class="cls-17" d="M126.75,198.19l3.25,1.88,5.89,13.75V203.46l2.89,1.67V220l-3.1-1.79-6-14V214.7L126.75,213Z"/><path class="cls-17" d="M141.74,206.84l3.05,1.76v6.12l5.73-2.8,4,2.31-6.09,2.59,6.4,12.43-4-2.3-4.57-9.12-1.49.65v5l-3.05-1.76Z"/></g></g></svg>