<?xml version="1.0" encoding="utf-8"?>
<!-- Generator: Adobe Illustrator 21.1.0, SVG Export Plug-In . SVG Version: 6.00 Build 0)  -->
<svg version="1.1" id="レイヤー_1" xmlns="http://www.w3.org/2000/svg" xmlns:xlink="http://www.w3.org/1999/xlink" x="0px"
	 y="0px" viewBox="0 0 120 120" style="enable-background:new 0 0 120 120;" xml:space="preserve">
<g id="template" style="display:none;">
	<g id="icaZXN.tif" style="display:inline;">
		
			<image style="overflow:visible;enable-background:new    ;" width="121" height="120" id="Layer_0_4_" xlink:href="8237DE4094588FAD.png"  transform="matrix(0.9835 0 0 1 -0.2595 0)">
		</image>
	</g>
	<g id="CM3fgX.tif" style="display:inline;">
		
			<image style="overflow:visible;enable-background:new    ;" width="123" height="144" id="Layer_0_5_" xlink:href="8237DE4094588FAF.png"  transform="matrix(0.8335 0 0 0.8472 10 -1)">
		</image>
	</g>
</g>
<g id="face">
	
		<ellipse transform="matrix(0.9144 -0.4048 0.4048 0.9144 -25.2982 18.1244)" style="fill:#FDD9C6;" cx="30.2" cy="68.9" rx="5.8" ry="9.1"/>
	
		<ellipse transform="matrix(0.4048 -0.9144 0.9144 0.4048 -11.9253 119.5157)" style="fill:#FDD9C6;" cx="85.8" cy="68.9" rx="9.1" ry="5.8"/>
	<path style="fill:#FDD9C6;" d="M66.8,98.5L58,99.3l-8.8-0.9c0,0,1,6.6,1,8.8l-1,6c0,2.2,2.8,3.9,4.9,3.9l3.9,0.1l3.9-0.1
		c2.2,0,4.9-1.8,4.9-3.9l-1-6C65.8,105.1,66.8,98.5,66.8,98.5z"/>
	<path style="fill:#FDD9C6;" d="M86.9,59.3C86.9,39.9,74,30.2,58,30.2s-28.9,9.7-28.9,29.1c0,12,4.2,10.7,4.3,15.3
		c-4.3,12.5,6.3,25.7,24.6,25.7s28.9-13.2,24.6-25.7C82.8,70,86.9,71.2,86.9,59.3z"/>
	<path d="M53.1,60l-1.6,2.2C41.2,59.2,37,60,37,60v-1C46.8,57.9,53.1,60,53.1,60z"/>
	<path style="display:none;fill:#E5B5A1;" d="M39,66.1h12.1c0,0-2.7-3.2-6-3.2S39,66.1,39,66.1z"/>
	<path style="fill:#FFFFFF;" d="M39,66.1h12.1c0,0-2.7,3.8-6,3.8S39,66.1,39,66.1z"/>
	<path d="M47.6,66.1c0,1.4-1.1,2.5-2.5,2.5s-2.5-1.1-2.5-2.5H47.6z"/>
	<g>
		<path style="fill:#E4739A;" d="M40,78c-1.8,0-3.2-1.4-3.2-3.1v-0.2l0.1-0.2c0.2-0.5,1.4-2.8,3.1-2.8h1.8c0.7,0,1.3,0.3,1.6,0.9
			c0.5,0.9,0.4,2.2,0.1,2.8C42.5,77.4,40.9,78,40,78z"/>
		<path style="fill:none;stroke:#F2ABB2;stroke-miterlimit:10;" d="M40,78c-1.8,0-3.2-1.4-3.2-3.1v-0.2l0.1-0.2
			c0.2-0.5,1.4-2.8,3.1-2.8h1.8c0.7,0,1.3,0.3,1.6,0.9c0.5,0.9,0.4,2.2,0.1,2.8C42.5,77.4,40.9,78,40,78z"/>
	</g>
	<path style="fill:none;stroke:#000000;stroke-width:0.25;stroke-miterlimit:10;" d="M58,74.6c-3.2,0-3,3.4-3,3.4"/>
	<path style="fill:#F2ABB2;" d="M58,84c-3-2.3-6.5-0.7-5.9,2.1c0,0,0.7,6,5.9,6s5.9-6,5.9-6C64.5,83.3,61,81.7,58,84z"/>
	<path style="fill:none;stroke:#000000;stroke-width:0.25;stroke-miterlimit:10;" d="M57,83.7c-0.8-0.6-1.2-1-3.1-0.4
		c-2.6,0.9-1.3,3.7-1.3,3.7"/>
	<path style="fill:none;stroke:#000000;stroke-miterlimit:10;" d="M58,86.6"/>
	<path style="fill:none;stroke:#000000;stroke-width:0.75;stroke-miterlimit:10;" d="M56,86.6c0,1,2,1,2,1"/>
	<path style="fill:none;stroke:#000000;stroke-width:0.25;stroke-miterlimit:10;" d="M53.6,88.9c1.2,2.7,4.4,2.7,4.4,2.7"/>
	<path d="M62.9,60l1.6,2.2C74.8,59.2,79,60,79,60v-1C69,57.9,62.9,60,62.9,60z"/>
	<path style="display:none;fill:#E5B5A1;" d="M77,66.1H64.9c0,0,2.7-3.2,6-3.2S77,66.1,77,66.1z"/>
	<path style="fill:#FFFFFF;" d="M77,66.1H64.9c0,0,2.7,3.8,6,3.8S77,66.1,77,66.1z"/>
	<path d="M68.4,66.1c0,1.4,1.1,2.5,2.5,2.5s2.5-1.1,2.5-2.5H68.4z"/>
	<g>
		<path style="fill:#E4739A;" d="M76,78c-0.8,0-2.5-0.6-3.6-2.7c-0.3-0.6-0.5-1.9,0.1-2.8c0.4-0.6,0.9-0.9,1.6-0.9h1.8
			c1.8,0,2.9,2.3,3.1,2.8l0.1,0.2v0.2C79.1,76.6,77.7,78,76,78z"/>
		<path style="fill:none;stroke:#F2ABB2;stroke-miterlimit:10;" d="M76,78c-0.8,0-2.5-0.6-3.6-2.7c-0.3-0.6-0.5-1.9,0.1-2.8
			c0.4-0.6,0.9-0.9,1.6-0.9h1.8c1.8,0,2.9,2.3,3.1,2.8l0.1,0.2v0.2C79.1,76.6,77.7,78,76,78z"/>
	</g>
	<path style="fill:none;stroke:#000000;stroke-width:0.25;stroke-miterlimit:10;" d="M58,74.6c3.2,0,3,3.4,3,3.4"/>
	<path style="fill:none;stroke:#000000;stroke-width:0.25;stroke-miterlimit:10;" d="M59,83.7c0.8-0.6,1.2-1,3.1-0.4
		c2.6,0.9,1.3,3.7,1.3,3.7"/>
	<path style="fill:none;stroke:#000000;stroke-miterlimit:10;" d="M58,86.6"/>
	<path style="fill:none;stroke:#000000;stroke-width:0.75;stroke-miterlimit:10;" d="M60,86.6c0,1-2,1-2,1"/>
	<path style="fill:none;stroke:#000000;stroke-width:0.25;stroke-miterlimit:10;" d="M62.4,88.9c-1.2,2.7-4.4,2.7-4.4,2.7"/>
</g>
<g id="hair">
	<path style="fill:#332C28;" d="M73.4,14.1c17,3.3,19.6,15.1,20,19.1c0.3,4,8.2,4.9,8.2,4.9l-5,2.9c0,6.3,3.5,14.8,3.5,14.8l-5-4.2
		l1.7,9L91.6,61L86,64.3V61c-3,10.3-6.2,10.3-6.2,10.3L80,59.1c0,0-7.3,10.5-5.8,4.9c3.7-14-10-21.2-10-21.2
		c-5,2.6-7.8,16.7-7.8,16.7c-11.9-2.2-11-13.2-11-13.2c-7.3,14.2-10.2,14.2-10.2,14.2l-1.7,13.3l-6.7-12.4l-3.2,4
		c0.1-3.1-3.5-3.4-3.3-5.3c0.8-10.2-7.1-8.7-7.1-8.7c17-9.7,2-18.4,2-18.4c8.6,2.7,5.8-4.9,5.8-4.9c4.5,2.9,7.5,0.9,11.1-5
		C43.6,4.2,57.5,9.3,57.5,9.3l-0.2-3.5C66.3,5.8,73.4,14.1,73.4,14.1z"/>
</g>
<g id="helmet" style="display:none;">
	
		<linearGradient id="SVGID_1_" gradientUnits="userSpaceOnUse" x1="25.2801" y1="73.906" x2="91.0899" y2="73.906" gradientTransform="matrix(1 0 0 -1 0 122)">
		<stop  offset="0" style="stop-color:#332C28"/>
		<stop  offset="5.500000e-02" style="stop-color:#332C28"/>
		<stop  offset="0.11" style="stop-color:#FFB717"/>
		<stop  offset="0.8" style="stop-color:#FFB717"/>
		<stop  offset="0.8642" style="stop-color:#FFB717"/>
		<stop  offset="0.895" style="stop-color:#FFFFFF"/>
		<stop  offset="0.9235" style="stop-color:#FFB717"/>
		<stop  offset="0.945" style="stop-color:#332C28"/>
		<stop  offset="1" style="stop-color:#332C28"/>
	</linearGradient>
	<path style="display:inline;fill:url(#SVGID_1_);" d="M90,51.4c-7.6-2.7-14.8-4.5-21.8-5.4c0-0.3,0.1-0.7,0.1-1c0-5.5-4.5-10-10-10
		s-10,4.5-10,10c0,0.3,0,0.7,0.1,1c-7,0.9-14.1,2.6-21.8,5.4c-1.8,0.8-1.3,7.4-0.6,8.8c0.7,1.4,2,1.1,3.4,0.4
		c0.1-0.1,17.6-5.3,26.6-5.2V55l0,0l0,0v0.4c9-0.1,19.4,1.5,29.5,5c0.2,0.1,4,1.2,4.7-0.2C91,58.8,91.8,52.2,90,51.4z"/>
	<path style="display:inline;fill:none;" d="M89,60.2c-0.4,0-1.9-0.6-2-0.6h-0.1c-10-3.4-19.1-5-27.9-5c-0.3,0-0.6,0-1,0
		c-0.3,0-0.6,0-1,0c-8.6,0-28,5.2-28,5.2c-0.5,0.2-1.1,0.5-1.6,0.5c-0.2,0-0.4,0-0.6-0.4c-0.7-1.4-0.8-6.9,0.1-7.4
		c7.6-2.7,14.6-4.5,21.5-5.3l1-0.1l-0.1-1c0-0.3,0-0.6,0-0.9c0-5,4-9,9-9s9,4,9,9c0,0.3,0,0.6,0,0.9l-0.1,1l1,0.1
		c6.9,0.8,13.9,2.6,21.6,5.3c0.8,0.5,0.7,6,0,7.4C89.4,60.1,89.2,60.2,89,60.2L89,60.2z"/>
	
		<linearGradient id="SVGID_2_" gradientUnits="userSpaceOnUse" x1="52.7634" y1="71.3552" x2="64.2784" y2="82.464" gradientTransform="matrix(1 0 0 -1 0 122)">
		<stop  offset="0" style="stop-color:#996D0A"/>
		<stop  offset="0.105" style="stop-color:#B37F0D"/>
		<stop  offset="0.5" style="stop-color:#FFB717"/>
		<stop  offset="0.895" style="stop-color:#FFFFFF"/>
		<stop  offset="1" style="stop-color:#FFB717"/>
	</linearGradient>
	<circle style="display:inline;fill:url(#SVGID_2_);" cx="58.2" cy="45.4" r="8"/>
	<g style="display:inline;">
		<circle style="fill:#36A0FF;" cx="58.3" cy="45.4" r="6.2"/>
	</g>
	<g style="display:inline;">
		<circle style="fill:#FFFFFF;" cx="59.8" cy="43.4" r="2.5"/>
	</g>
</g>
<g id="guide">
</g>
</svg>
