<?xml version="1.0" encoding="utf-8"?>
<!-- Generator: Adobe Illustrator 21.1.0, SVG Export Plug-In . SVG Version: 6.00 Build 0)  -->
<svg version="1.1" id="レイヤー_1" xmlns="http://www.w3.org/2000/svg" xmlns:xlink="http://www.w3.org/1999/xlink" x="0px"
	 y="0px" viewBox="0 0 473.2 457.4" style="enable-background:new 0 0 473.2 457.4;" xml:space="preserve">
<title>sample_bank</title>
<g id="レイヤー_2">
	<g id="polygon_bank">
		<polygon style="opacity:0.1;enable-background:new    ;" points="190.9,457.4 473.2,324.4 452.1,213.6 241.9,164.2 29.8,286.5 		
			"/>
		<polygon style="fill:#F8F8F8;" points="29.8,286.7 219.8,396.4 409.8,286.7 219.8,177 		"/>
		<polygon style="fill:#4D4D4D;" points="111.3,285 219.8,222.4 328.3,285 219.8,347.6 		"/>
		<polygon style="fill:#B2B2B2;" points="325.7,286.7 220,347.6 220,274.5 325.7,213.6 		"/>
		<polygon style="fill:#CCCCCC;" points="114.7,286.7 220,347.6 220.1,274.5 114.7,213.6 		"/>
		<polygon style="fill:#CCCCCC;" points="220.2,411.2 29.8,301.2 29.8,286.5 220.2,396.5 		"/>
		<polygon style="fill:#F8F8F8;" points="220.2,411.1 205.4,419.7 14.9,309.7 29.8,301.1 		"/>
		<polygon style="fill:#CCCCCC;" points="205.4,434.4 14.9,324.4 14.9,309.7 205.4,419.7 		"/>
		<polygon style="fill:#F8F8F8;" points="205.3,434.1 190.4,442.7 0,333 14.9,324.4 		"/>
		<polygon style="fill:#CCCCCC;" points="190.6,457.4 0.2,347.5 0.2,332.8 190.6,442.8 		"/>
		<polygon style="fill:#B2B2B2;" points="409.7,286.6 409.7,330.8 190.7,457.4 190.7,442.7 205.2,434.1 205.3,419.7 220.2,411.1 
			220.1,396.5 		"/>
		<polygon style="fill:#7E7F7F;" points="64.7,273.2 43.2,285.5 64.7,298 86.2,285.6 		"/>
		<polygon style="fill:#E5E5E5;" points="64.7,263.2 43.2,275.5 64.7,288 86.2,275.6 		"/>
		<polygon style="fill:#B2B2B2;" points="86.7,285.6 64.7,298 64.7,288 86.7,275.6 		"/>
		<polygon style="fill:#CCCCCC;" points="43.7,285.6 64.7,298 64.7,288 43.7,275.6 		"/>
		<polygon style="fill:#E5E5E5;" points="58.7,282.5 51.7,275.6 51.7,174.6 58.7,181.5 		"/>
		<rect x="58.7" y="181.9" style="fill:#C4C5C7;" width="12" height="101"/>
		<polygon style="fill:#A4A5A7;" points="77.7,275.5 70.7,282.5 70.7,181.5 77.7,174.5 		"/>
		<polygon style="fill:#7E7F7F;" points="102.4,295.2 80.9,307.5 102.4,320 124,307.6 		"/>
		<polygon style="fill:#E5E5E5;" points="102.4,285.2 80.9,297.5 102.4,310 124,297.6 		"/>
		<polygon style="fill:#B2B2B2;" points="123.7,307.6 102.7,320 102.7,310 123.7,297.6 		"/>
		<polygon style="fill:#CCCCCC;" points="80.7,307.6 102.7,320 102.7,310 80.7,297.6 		"/>
		<polygon style="fill:#E5E5E5;" points="95.7,304.5 89.7,297.6 89.7,196.6 95.7,203.5 		"/>
		<rect x="95.7" y="203.9" style="fill:#C4C5C7;" width="13" height="101"/>
		<polygon style="fill:#A4A5A7;" points="115.7,297.5 108.7,304.5 108.7,203.5 115.7,196.5 		"/>
		<polygon style="fill:#333333;" points="149.6,295.9 171.2,308.3 171.2,256.2 149.6,243.7 		"/>
		<polygon style="fill:#7E7F7F;" points="177.9,339.2 156.4,351.5 177.9,364 199.5,351.6 		"/>
		<polygon style="fill:#E5E5E5;" points="177.9,329.2 156.4,341.5 177.9,354 199.5,341.6 		"/>
		<polygon style="fill:#B2B2B2;" points="199.7,351.6 177.7,364 177.7,354 199.7,341.6 		"/>
		<polygon style="fill:#CCCCCC;" points="156.7,351.6 177.7,364 177.7,354 156.7,341.6 		"/>
		<polygon style="fill:#E5E5E5;" points="171.7,348.5 165.7,341.6 165.7,240.6 171.7,247.5 		"/>
		<rect x="171.7" y="247.9" style="fill:#C4C5C7;" width="13" height="101"/>
		<polygon style="fill:#A4A5A7;" points="190.7,341.5 184.7,348.5 184.7,247.5 190.7,240.5 		"/>
		<polygon style="fill:#7E7F7F;" points="215.7,361.2 194.2,373.5 215.7,386 237.2,373.6 		"/>
		<polygon style="fill:#E5E5E5;" points="215.7,351.2 194.2,363.5 215.7,376 237.2,363.6 		"/>
		<polygon style="fill:#B2B2B2;" points="237.7,373.6 215.7,386 215.7,376 237.7,363.6 		"/>
		<polygon style="fill:#CCCCCC;" points="194.7,373.6 215.7,386 215.7,376 194.7,363.6 		"/>
		<polygon style="fill:#E5E5E5;" points="209.7,370.5 202.7,363.6 202.7,262.6 209.7,269.5 		"/>
		<rect x="209.7" y="269.9" style="fill:#C4C5C7;" width="12" height="101"/>
		<polygon style="fill:#A4A5A7;" points="228.7,363.5 221.7,370.5 221.7,269.5 228.7,262.5 		"/>
		<polygon style="fill:#7E7F7F;" points="253.7,339.2 232.2,351.5 253.7,364 275.2,351.6 		"/>
		<polygon style="fill:#E5E5E5;" points="253.7,329.2 232.2,341.5 253.7,354 275.2,341.6 		"/>
		<polygon style="fill:#B2B2B2;" points="275.7,351.6 253.7,364 253.7,354 275.7,341.6 		"/>
		<polygon style="fill:#CCCCCC;" points="232.7,351.6 253.7,364 253.7,354 232.7,341.6 		"/>
		<polygon style="fill:#E5E5E5;" points="247.7,348.5 240.7,341.6 240.7,240.6 247.7,247.5 		"/>
		<rect x="247.7" y="247.9" style="fill:#C4C5C7;" width="12" height="101"/>
		<polygon style="fill:#A4A5A7;" points="266.7,341.5 259.7,348.5 259.7,247.5 266.7,240.5 		"/>
		<polygon style="fill:#7E7F7F;" points="291.7,317.2 270.2,329.5 291.7,342 313.2,329.6 		"/>
		<polygon style="fill:#E5E5E5;" points="291.7,307.2 270.2,319.5 291.7,332 313.2,319.6 		"/>
		<polygon style="fill:#B2B2B2;" points="313.7,329.6 291.7,342 291.7,332 313.7,319.6 		"/>
		<polygon style="fill:#CCCCCC;" points="270.7,329.6 291.7,342 291.7,332 270.7,319.6 		"/>
		<polygon style="fill:#E5E5E5;" points="285.7,326.5 278.7,319.6 278.7,218.6 285.7,225.5 		"/>
		<rect x="285.7" y="225.9" style="fill:#C4C5C7;" width="12" height="101"/>
		<polygon style="fill:#A4A5A7;" points="304.7,319.5 297.7,326.5 297.7,225.5 304.7,218.5 		"/>
		<polygon style="fill:#7E7F7F;" points="329.7,295.2 308.2,307.5 329.7,320 351.2,307.6 		"/>
		<polygon style="fill:#E5E5E5;" points="329.7,285.2 308.2,297.5 329.7,310 351.2,297.6 		"/>
		<polygon style="fill:#B2B2B2;" points="351.7,307.6 329.7,320 329.7,310 351.7,297.6 		"/>
		<polygon style="fill:#CCCCCC;" points="308.7,307.6 329.7,320 329.7,310 308.7,297.6 		"/>
		<polygon style="fill:#E5E5E5;" points="323.7,304.5 316.7,297.6 316.7,196.6 323.7,203.5 		"/>
		<rect x="323.7" y="203.9" style="fill:#C4C5C7;" width="12" height="101"/>
		<polygon style="fill:#A4A5A7;" points="342.7,297.5 335.7,304.5 335.7,203.5 342.7,196.5 		"/>
		<polygon style="fill:#7E7F7F;" points="367.7,273.2 346.2,285.5 367.7,298 389.2,285.6 		"/>
		<polygon style="fill:#E5E5E5;" points="367.7,263.2 346.2,275.5 367.7,288 389.2,275.6 		"/>
		<polygon style="fill:#B2B2B2;" points="389.7,285.6 367.7,298 367.7,288 389.7,275.6 		"/>
		<polygon style="fill:#CCCCCC;" points="346.7,285.6 367.7,298 367.7,288 346.7,275.6 		"/>
		<polygon style="fill:#E5E5E5;" points="361.7,282.5 354.7,275.6 354.7,174.6 361.7,181.5 		"/>
		<rect x="361.7" y="181.9" style="fill:#C4C5C7;" width="12" height="101"/>
		<polygon style="fill:#A4A5A7;" points="380.7,275.5 373.7,282.5 373.7,181.5 380.7,174.5 		"/>
		<polygon style="fill:#B2B2B2;" points="29.8,164.9 219.8,274.6 409.8,164.9 219.8,55.2 		"/>
		<polygon style="fill:#7F7F7F;" points="29.8,139.4 219.8,249.2 409.8,139.4 219.8,29.7 		"/>
		<polygon style="fill:#E5E5E5;" points="220,249.2 219.7,262 219.7,274.8 124.7,219.9 29.7,164.9 29.7,152.1 29.7,139.3 
			124.6,194.3 		"/>
		<polygon style="fill:#00558F;" points="219.8,249.2 219.2,274.8 410.7,164.9 410.7,139.3 		"/>
		<polygon style="fill:#E5E5E5;" points="29.8,139.3 219.8,249.2 125,110 		"/>
		<polygon style="fill:#CCCCCC;" points="221.3,29.3 410.8,139.3 316.5,0 		"/>
		<polygon style="fill:#0071BC;" points="316.5,0 125,110 29.8,139.3 221.3,29.3 		"/>
		<polygon style="fill:#005D9C;" points="316.5,0 410.8,139.3 219.8,249.2 125,110 		"/>
		<polygon style="fill:#D2D3D5;" points="124.1,129.9 63,148.7 184.8,219.2 		"/>
		<polygon style="fill:#F8F8F8;" points="74.1,145.3 63,148.7 184.8,219.2 173.1,202 		"/>
		<path style="fill:#C0C1C3;" d="M133.3,171.3c-5,2.9-13.2-1.8-18.2-10.6s-5.1-18.1,0-21c0.5-0.3,0.9-0.5,1.4-0.6
			c5-1.4,12.2,3.2,16.8,11.2s5,16.4,1.3,20.1C134.2,170.8,133.8,171.1,133.3,171.3z"/>
		<path style="fill:#FFFFFF;" d="M118.7,158.6c-4.4-7.6-5-15.7-1.7-19.6c-0.1,0-0.3,0-0.4,0.1c-0.5,0.1-1,0.3-1.4,0.6
			c-5,2.9-5,12.3,0,21s13.2,13.4,18.2,10.6c0.5-0.3,0.9-0.6,1.2-0.9c0.2-0.1,0.3-0.3,0.4-0.5C130,170.9,123.1,166.4,118.7,158.6z"/>
		<polygon style="fill:#A4A5A7;" points="139.8,301.4 149.6,295.9 149.6,243.7 139.8,238.1 		"/>
		<polygon style="fill:#095CA1;" points="166.3,240.4 84.8,192.8 84.8,169.3 166.3,216.6 		"/>
		<polygon style="fill:#0E70C2;" points="87.4,167.8 84.8,169.3 166.3,216.6 169.2,215.3 		"/>
		<polygon style="fill:#085493;" points="166.3,216.6 166.3,240.4 169.3,238.6 169.2,215.3 		"/>
		<polygon style="fill:#E5E5E5;" points="149.6,295.9 139.8,301.4 171.4,319.7 171.2,308.3 		"/>
		<path style="fill:#FFFFFF;" d="M108.8,189.4c0.4,0.8,0.7,1.7,0.7,2.7c0.1,0.7-0.2,1.3-0.7,1.8c-0.3,0.2-0.7,0.2-1.1,0.2
			c0.7,0.7,1.3,1.4,1.7,2.3c0.4,0.8,0.6,1.6,0.6,2.5c0.1,0.7-0.2,1.4-0.7,2c-0.3,0.3-0.6,0.5-1.1,0.6c-0.6,0.1-1.1,0-1.7-0.2
			c-0.7-0.3-1.4-0.6-2.1-1l-6.7-3.9v-14.9l7.2,4.1C106.5,186.4,107.9,187.8,108.8,189.4z M100.7,185.7v3.3l3.6,2.1
			c0.5,0.3,1,0.5,1.6,0.5c0.4,0,0.6-0.3,0.6-1c0-0.7-0.3-1.4-0.8-1.8c-0.5-0.5-1.1-0.9-1.8-1.2L100.7,185.7z M100.7,191.4v4l3.6,2.1
			c0.5,0.3,1,0.5,1.5,0.6c0.7,0.1,1-0.4,1-1.3c0-0.8-0.4-1.6-0.9-2.1c-0.4-0.4-0.9-0.8-1.5-1.1L100.7,191.4z"/>
		<path style="fill:#FFFFFF;" d="M116.2,192.1l3.5,2L125,212l-3.4-1.9l-1-3.6l-5.5-3.1l-1,2.5l-3.2-1.9L116.2,192.1z M116.1,201.2
			l3.8,2.2l-1.9-6.9L116.1,201.2z"/>
		<path style="fill:#FFFFFF;" d="M126.8,198.2l3.2,1.9l5.9,13.8v-10.4l2.9,1.7V220l-3.1-1.8l-6-14v10.5l-2.9-1.7V198.2z"/>
		<path style="fill:#FFFFFF;" d="M141.7,206.8l3.1,1.8v6.1l5.7-2.8l4,2.3l-6.1,2.6l6.4,12.4l-4-2.3l-4.6-9.1l-1.5,0.6v5l-3.1-1.8
			L141.7,206.8z"/>
	</g>
</g>
</svg>
