<?xml version="1.0" encoding="iso-8859-1"?>
<!-- Generator: Adobe Illustrator 21.1.0, SVG Export Plug-In . SVG Version: 6.00 Build 0)  -->
<svg version="1.1" id="&#x30EC;&#x30A4;&#x30E4;&#x30FC;_2"
	 xmlns="http://www.w3.org/2000/svg" xmlns:xlink="http://www.w3.org/1999/xlink" x="0px" y="0px" viewBox="0 0 1280 960"
	 style="enable-background:new 0 0 1280 960;" xml:space="preserve">
	<polyline style="fill:#85442A;" points="620.25,585.5 646.75,587 646.688,649.163 620.041,591.806 	"/>
	<polyline style="fill:#0C0B09;" points="646.688,649.163 620.25,585.5 598.365,610.976 646.688,649.163 	"/>
	<polyline style="fill:#0B0507;" points="620.25,585.5 598.028,584.083 598.365,610.976 620.25,585.5 	"/>
	<polyline style="fill:#060604;" points="598.028,584.083 598.365,610.976 561.983,585.217 598.028,584.083 	"/>
	<polyline style="fill:#3D2F27;" points="646.542,677.056 603.126,703.935 646.625,705.833 646.542,677.056 	"/>
	<polyline style="fill:none;stroke:#00FFFF;stroke-miterlimit:10;" points="603.126,703.935 546.468,700.467 603.126,703.935
		603.126,703.935 	"/>
	<polyline style="fill:#ADA396;" points="646.688,649.163 646.542,677.056 603.126,703.935 646.688,649.163 	"/>
	<polyline style="fill:#E3D1A4;" points="646.688,649.163 621.377,628.281 603.126,703.935 646.688,649.163 	"/>
	<polyline style="fill:#C7AA6B;" points="598.365,610.976 621.377,628.281 615.262,651.99 598.365,610.976 	"/>
	<polyline style="fill:#ECD299;" points="615.262,651.99 603.126,703.935 546.468,700.467 615.262,651.99 	"/>
	<polyline style="fill:#DDBB81;" points="598.365,610.976 615.262,651.99 546.468,700.467 598.365,610.976 	"/>
	<polyline style="fill:#D9993E;" points="561.983,585.217 598.365,610.976 546.468,700.467 561.983,585.217 	"/>
	<polyline style="fill:#E6A342;" points="561.983,585.217 546.468,700.467 511.842,636.553 561.983,585.217 	"/>
	<polyline style="fill:#B56A1E;" points="511.842,636.553 528.712,560.015 561.983,585.217 511.842,636.553 	"/>
	<polyline style="fill:#9E7C52;" points="646.7,544.3 646.75,587 598.028,584.083 646.7,544.3 	"/>
	<polyline style="fill:#B17A3E;" points="646.7,544.3 598.028,584.083 594.75,535.017 646.7,544.3 	"/>
	<polyline style="fill:#C28339;" points="594.75,535.017 598.028,584.083 561.983,585.217 594.75,535.017 	"/>
	<polyline style="fill:#BE8B3E;" points="646.604,498 646.7,544.3 594.75,535.017 646.604,498 	"/>
	<polyline style="fill:#C3730E;" points="528.712,560.015 561.983,585.217 594.75,535.017 528.712,560.015 	"/>
	<polyline style="fill:#CB9A53;" points="646.75,400.5 646.604,498 594.75,535.017 646.75,400.5 	"/>
	<polyline style="fill:#C07D2E;" points="594.75,535.017 528.712,560.015 570.458,505.958 594.75,535.017 	"/>
	<polyline style="fill:#9A6635;" points="529.167,560.333 591,478.75 567.259,448.523 528.712,560.015 	"/>
	<polyline style="fill:#BE802F;" points="595.167,535.5 570.458,505.958 616.25,479.25 595.75,535.017 	"/>
	<polyline style="fill:#C07E26;" points="569.667,506.333 616.375,479.208 646.75,400.5 570.458,505.958 	"/>
	<polyline style="fill:#A36423;" points="568.259,452.523 590.625,478.25 646.75,400.5 565.25,448 	"/>
	<polyline style="fill:#F9C76B;" points="569,395.09 567.259,449.523 604.75,425.75 569,395.09 	"/>
	<polyline style="fill:#BB7E2F;" points="569,395.09 604.75,425.75 646.75,400.5 569,395.09 	"/>
	<polyline style="fill:#C08731;" points="646.75,400.5 603.875,322.125 569,395.09 646.75,400.5 	"/>
	<polyline style="fill:#844708;" points="646.75,400.5 650.311,308.143 603.875,322.125 646.75,400.5 	"/>
	<polyline style="fill:#C28537;" points="650.311,308.143 603.875,322.125 584.449,264.208 650.311,308.143 	"/>
	<polyline style="fill:#CB8323;" points="584.449,264.208 603.875,322.125 569,395.09 584.449,264.208 	"/>
	<polyline style="fill:#B38048;" points="506.25,418.5 507.547,431.931 567.259,449.523 506.25,418.5 	"/>
	<polyline style="fill:#EECF92;" points="506.25,418.5 567.259,449.523 567.917,430.167 506.25,418.5 	"/>
	<polyline style="fill:#A25F16;" points="526.511,291.067 569,395.09 584.449,264.208 526.511,291.067 	"/>
	<polyline style="fill:#805734;" points="507.547,431.931 567.259,449.523 529,559.875 507.547,431.931 	"/>
	<polyline style="fill:#B2813D;" points="511.842,636.553 528.712,560.015 473.828,509.586 511.842,636.553 	"/>
	<polyline style="fill:#805420;" points="506.25,418.5 528.958,560.292 473.828,509.586 506.25,418.5 	"/>
	<polyline style="fill:#674524;" points="506.25,418.5 473.828,509.586 449.667,418.667 506.25,418.5 	"/>
	<polyline style="fill:#9A6A31;" points="529.75,374 488.8,352.5 449.667,418.667 529.75,374 	"/>
	<polyline style="fill:#996D36;" points="526.511,291.067 569,395.09 488.8,352.5 526.511,291.067 	"/>
	<polyline style="fill:#BCAE90;" points="603.126,703.935 646.625,705.833 647.258,781.569 603.126,703.935 	"/>
	<polyline style="fill:#9F9381;" points="647.258,781.569 627.345,826.946 598.177,780.762 647.258,781.569 	"/>
	<polyline style="fill:#BAAA84;" points="603.126,703.935 647.258,781.569 598.177,780.762 603.126,703.935 	"/>
	<polyline style="fill:#E5D3C0;" points="603.126,703.935 598.177,780.762 556.405,749.708 603.126,703.935 	"/>
	<polyline style="fill:#BB9B67;" points="603.126,703.935 554.167,728.375 556.405,749.708 603.126,703.935 	"/>
	<polyline style="fill:#8B5115;" points="584.449,264.208 712.391,264.286 650.311,308.143 584.449,264.208 	"/>
	<polyline style="fill:#92500F;" points="650.311,238.763 577.841,174.892 584.449,264.208 650.311,238.763 	"/>
	<polyline style="fill:#7C3E04;" points="577.841,174.892 584.449,264.208 526.511,291.067 577.841,174.892 	"/>
	<polyline style="fill:#120901;" points="615.217,140.975 650.311,238.763 646.597,124.319 615.217,140.975 	"/>
	<polyline style="fill:#3E3634;" points="573.769,120.019 646.597,124.319 526,37 573.769,120.019 	"/>
	<path style="fill:none;stroke:#00FFFF;stroke-miterlimit:10;" d="M577.841,174.892"/>
	<polyline style="fill:#7F3D02;" points="581.591,174.861 444.25,152 560.662,216.917 581.591,174.861 	"/>
	<polyline style="fill:#817F8E;" points="523,45 529.6,71.4 487,31 515,41 	"/>
	<polyline style="fill:#382F29;" points="529.6,71.4 573.769,120.019 500.786,97.857 529.6,71.4 	"/>
	<polyline style="fill:#413D4C;" points="529.6,71.4 500.786,97.857 454,43 529.6,71.4 	"/>
	<path style="fill:none;stroke:#00FFFF;stroke-miterlimit:10;" d="M500.786,97.857"/>
	<polyline style="fill:#887364;" points="500.786,97.857 447.5,153 358,110 500.786,97.857 	"/>
	<polyline style="fill:#B05400;" points="447.5,153 526.511,291.067 559.979,216.167 	"/>
	<polyline style="fill:#A05E0F;" points="526.511,291.067 488.8,352.5 420.4,323.8 526.511,291.067 	"/>
	<polyline style="fill:#945825;" points="447.5,153 526.511,291.067 420.4,323.8 447.5,153 	"/>
	<polyline style="fill:#774615;" points="447.5,153 419.125,218.75 401,157 447.5,153 	"/>
	<polyline style="fill:#524A48;" points="447.5,153 384,124 325,169 447.5,153 	"/>
	<polyline style="fill:#9E7442;" points="401,157 419.125,218.75 289,201 385,160 	"/>
	<polyline style="fill:#AF6C29;" points="447.5,153 420.4,323.8 340.364,360.039 419.125,218.75 	"/>
	<polyline style="fill:#663B1F;" points="419.125,218.75 301.5,216 361.25,262.5 419.125,218.75 	"/>
	<polyline style="fill:#6A2E00;" points="419.125,218.75 340.364,360.039 334,284.333 419.125,218.75 	"/>
	<polyline style="fill:#4C3B39;" points="360.82,262.5 325,234.554 277,264 360.82,262.5 	"/>
	<polyline style="fill:#592300;" points="360.917,263 308,276.25 334,284.333 360.917,263 	"/>
	<polyline style="fill:#5A2400;" points="308,276.25 334,284.333 340.364,360.039 316.65,298.25 	"/>
	<polyline style="fill:#292620;" points="308,276.25 263,289 316.65,298.25 308,276.25 	"/>
	<polyline style="fill:#131210;" points="316.65,298.25 270,332 323,331.438 316.65,298.25 	"/>
	<polyline style="fill:#351300;" points="420.4,323.8 488.8,352.5 340.364,360.039 420.4,323.8 	"/>
	<polyline style="fill:#A69C91;" points="646.597,124.319 650,33 621,97 646.597,124.319 	"/>
	<polyline style="fill:#57525A;" points="620.5,71.5 621,97 545,37 620.5,71.5 	"/>
	<polyline style="fill:#A7A9B9;" points="620.5,71.5 600,34 602,60 620.5,71.5 	"/>
	<polyline style="fill:#5C3416;" points="615.217,140.975 573.769,120.019 650.311,238.763 615.217,140.975 	"/>
	<polyline style="fill:#5D2901;" points="429.75,364.25 488.8,352.5 449.667,418.667 429.75,364.25 	"/>
	<polyline style="fill:#3D1703;" points="384,404.98 449.667,418.667 473.828,509.586 384,404.98 	"/>
	<polyline style="fill:#DB9838;" points="384,404.98 340.364,360.039 308.288,459.052 384,404.98 	"/>
	<polyline style="fill:#CF8424;" points="384,404.98 420.673,473.021 308.288,459.052 384,404.98 	"/>
	<polyline style="fill:#BC7A2D;" points="420.673,473.021 473.828,509.586 439.725,571.658 420.673,473.021 	"/>
	<polyline style="fill:#CC8B2D;" points="473.828,509.586 511.842,636.553 439.725,571.658 473.828,509.586 	"/>
	<polyline style="fill:#894D01;" points="420.673,473.021 439.725,571.658 359.448,569.967 420.673,473.021 	"/>
	<polyline style="fill:#823E03;" points="420.673,473.021 380.302,460.463 359.448,569.967 420.673,473.021 	"/>
	<polyline style="fill:#B26C1A;" points="308.288,459.052 380.302,460.463 359.448,569.967 308.288,459.052 	"/>
	<polyline style="fill:#FDD264;" points="308.288,459.052 359.448,569.967 277.197,647.854 308.288,459.052 	"/>
	<polyline style="fill:#E2B873;" points="439.725,571.658 511.842,636.553 420.8,755.2 439.725,571.658 	"/>
	<polyline style="fill:#BB7A1F;" points="359.448,569.967 439.725,571.658 355,668.75 359.448,569.967 	"/>
	<polyline style="fill:#B88537;" points="439.725,571.658 420.8,755.2 355,668.75 439.725,571.658 	"/>
	<polyline style="fill:#E5B354;" points="359.448,569.967 312.054,770.544 323,630 359.448,569.967 	"/>
	<polyline style="fill:#BC8235;" points="354,667.75 312.054,770.544 386.937,710.71 355,667.75 	"/>
	<polyline style="fill:#9A630D;" points="386.937,710.71 351.286,737.793 428.667,863 420.8,755.2 386.937,710.71 	"/>
	<polyline style="fill:#1B0901;" points="546.468,700.467 554.167,728.375 508.2,733.3 546.468,700.467 	"/>
	<path style="fill:none;stroke:#00FFFF;stroke-miterlimit:10;" d="M511.842,636.553"/>
	<polyline style="fill:#271705;" points="546.468,700.467 511.842,636.553 496,695.8 546.468,700.467 	"/>
	<polyline style="fill:#8C7250;" points="496,695.8 546.468,700.467 508.2,733.3 496,695.8 	"/>
	<polyline style="fill:#D7A767;" points="511.842,636.553 476.111,767.222 420.8,755.2 511.842,636.553 	"/>
	<polyline style="fill:#BB945C;" points="476.111,767.222 420.8,755.2 428.667,863 476.111,767.222 	"/>
	<polyline style="fill:#66441E;" points="496,695.8 476.111,767.222 508.2,733.3 496,695.8 	"/>
	<polyline style="fill:#613B16;" points="556.405,749.708 598.177,780.762 552.944,793.667 556.405,749.708 	"/>
	<path style="fill:none;stroke:#00FFFF;stroke-miterlimit:10;" d="M554.167,728.375"/>
	<polyline style="fill:#311502;" points="556.405,749.708 554.167,728.375 508.2,733.3 556.405,749.708 	"/>
	<polyline style="fill:#947743;" points="556.405,749.708 508.2,733.3 476.111,767.222 552.944,793.667 	"/>
	<polyline style="fill:#4B3118;" points="476.111,767.222 428.667,863 517.5,859.5 476.111,767.222 	"/>
	<polyline style="fill:#C7A168;" points="476.111,767.222 552.944,793.667 517.5,859.5 476.111,767.222 	"/>
	<polyline style="fill:#674819;" points="552.944,793.667 598.177,780.762 582.5,856.5 552.944,793.667 	"/>
	<polyline style="fill:#977742;" points="552.944,793.667 517.5,859.5 547.667,911.667 552.944,793.667 	"/>
	<polyline style="fill:#9E7F4F;" points="552.944,793.667 547.667,911.667 595,884.212 552.944,793.667 	"/>
	<polyline style="fill:#644528;" points="598.177,780.762 582.5,856.5 607.5,911.125 598.177,780.762 	"/>
	<polyline style="fill:#3C2613;" points="598.177,780.762 610.5,832.5 627.345,826.946 598.177,780.762 	"/>
	<polyline style="fill:#84602A;" points="647.258,781.569 627.345,826.946 648.333,922.5 647.258,781.569 	"/>
	<polyline style="fill:#7D5D34;" points="627.345,826.946 610.5,832.5 607.5,911.125 627.345,826.946 	"/>
	<polyline style="fill:#674E34;" points="627.345,826.946 607.5,911.125 648.333,922.5 627.345,826.946 	"/>
	<polyline style="fill:#3E2C27;" points="323,331.438 340.364,360.039 248,359 323,331.438 	"/>
	<polyline style="fill:#634D46;" points="340.364,360.039 275,370.5 306.75,417.5 340.364,360.039 	"/>
	<polyline style="fill:#9C9BA4;" points="286.5,388.75 306.75,417.5 263,454 286.5,388.75 	"/>
	<path style="fill:none;stroke:#00FFFF;stroke-miterlimit:10;" d="M306.75,417.5"/>
	<polyline style="fill:#B3856C;" points="308.288,459.052 306.75,417.5 245,493 308.288,459.052 	"/>
	<polyline style="fill:#906E4E;" points="308.288,459.052 287.3,513.167 238,517 308.288,459.052 	"/>
	<path style="fill:none;stroke:#00FFFF;stroke-miterlimit:10;" d="M359.448,569.967"/>
	<polyline style="fill:#DC9F48;" points="277.197,647.854 359.448,569.967 323,630 277.197,647.854 	"/>
	<polyline style="fill:#C07E22;" points="323,630 277.197,647.854 312.054,770.544 323,630 	"/>
	<polyline style="fill:#C88954;" points="287.3,513.167 236.574,592.391 282.75,580.25 287.3,513.167 	"/>
	<polyline style="fill:#866B5B;" points="287.3,513.167 234,539 266,533 287.3,513.167 	"/>
	<polyline style="fill:#C1803B;" points="282.75,580.25 236.574,592.391 277.197,647.854 282.5,581.25 	"/>
	<polyline style="fill:#A3641A;" points="207.151,734.057 277.197,647.854 236.574,592.391 207.151,734.057 	"/>
	<polyline style="fill:#875015;" points="277.197,647.854 207.151,734.057 312.054,770.544 277.197,647.854 	"/>
	<polyline style="fill:#B58550;" points="207.151,734.057 312.054,770.544 237.37,812.525 207.151,734.057 	"/>
	<polyline style="fill:#5E432A;" points="312.054,770.544 264.37,805.525 296.608,816.075 312.054,770.544 	"/>
	<polyline style="fill:#4F3320;" points="264.37,805.525 260.5,838 237.37,812.525 264.37,805.525 	"/>
	<polyline style="fill:#805135;" points="207.151,734.057 209.667,870.333 237.37,812.525 207.151,734.057 	"/>
	<polyline style="fill:#473222;" points="573.769,120.019 646.597,124.319 615.217,140.975 573.769,120.019 	"/>
	<polygon style="fill:#463A33;" points="316.65,298.25 340.364,360.039 323,331.438 	"/>
	<polygon style="fill:#7D551D;" points="340.364,360.039 308.288,459.052 306.75,417.5 	"/>
	<polygon style="fill:#F0B66C;" points="308.288,459.052 287.3,513.167 277.197,647.854 	"/>
	<polyline style="fill:#5E1C00;" points="449.667,418.667 340.364,360.039 384,404.98 449.667,418.667 	"/>
	<polyline style="fill:#833801;" points="340.364,360.039 449.667,418.667 429.75,364.25 	"/>
	<polyline style="fill:#DC9F48;" points="359.448,569.967 355,666.5 312.054,770.544 359.448,569.967 	"/>
	<polyline style="fill:#74401B;" points="384,404.98 420.5,473.021 473.828,509.586 384,404.98 	"/>
	<polyline style="fill:#160D03;" points="546.468,700.467 554.167,728.375 603.126,703.935 546.468,700.467 	"/>
	<polyline style="fill:#5D482D;" points="598.177,780.762 610.5,833.5 607.5,911.125 598.177,780.762 	"/>
	<polyline style="fill:#B76700;" points="709.391,264.286 650.75,238.763 581.449,264.208 709.391,264.286 	"/>
	<line style="fill:#604124;" x1="569" y1="395.09" x2="569" y2="395.09"/>
	<polyline style="fill:#0E0A07;" points="569,395.09 568,430.25 535.5,423.75 569,395.09 	"/>
	<polyline style="fill:#321F12;" points="569,395.09 535.5,423.75 502.02,409 569,395.09 	"/>
	<polyline style="fill:#321E05;" points="502.02,409 537.528,394.333 569,395.09 502.02,409 	"/>
	<polyline style="fill:#846031;" points="569,395.09 529.75,374 495.02,392.781 569,395.09 	"/>
	<polyline style="fill:#8F5B2C;" points="537.528,394.333 502.02,409 495.02,392.781 537.528,394.333 	"/>
	<polyline style="fill:#BA9957;" points="502.02,409 505.5,418.5 536.5,424.125 502.02,409 	"/>
	<polyline style="fill:#B56916;" points="500.786,97.857 447.5,153 577.841,174.892 500.786,97.857 	"/>
	<polyline style="fill:#572500;" points="573.769,120.019 577.841,174.892 650.311,238.763 573.769,120.019 	"/>
	<polyline style="fill:#C96F0E;" points="500.786,97.857 573.769,120.019 577.841,174.892 500.786,97.857 	"/>
	<polyline style="fill:#4F4242;" points="500.786,97.857 393.932,90.75 473.455,76.5 500.786,97.857 	"/>
	<polyline style="fill:#5E1C00;" points="340.182,360.039 488.8,352.5 429.75,364.25 340,360.039 	"/>
	<polyline style="fill:#9C8169;" points="237.37,812.525 312.054,770.544 264.033,805.525 237.37,812.525 	"/>
	<polyline style="fill:#764C1C;" points="351.286,737.793 312.054,770.544 287.3,856.5 351.286,737.793 	"/>
	<polyline style="fill:#77582A;" points="351.286,737.793 380.302,863 407.428,827.835 351.286,737.793 	"/>
	<polyline style="fill:#4B3A2A;" points="351.286,737.793 344.295,816.075 321.048,793.892 351.286,737.793 	"/>
	<polyline style="fill:#9D6230;" points="495.02,392.781 506.25,418.5 449.667,418.667 495.02,392.781 	"/>
	<polyline style="fill:#85442A;" points="671.293,586.5 644.793,588 644.855,650.163 671.502,592.806 	"/>
	<polyline style="fill:#0C0B09;" points="644.855,650.163 671.293,586.5 693.178,611.976 644.855,650.163 	"/>
	<polyline style="fill:#0B0507;" points="671.293,586.5 693.515,585.083 693.178,611.976 671.293,586.5 	"/>
	<polyline style="fill:#060604;" points="693.515,585.083 693.178,611.976 729.56,586.217 693.515,585.083 	"/>
	<polyline style="fill:#3D2F27;" points="645.001,678.056 688.417,704.935 644.918,706.833 645.001,678.056 	"/>
	<polyline style="fill:none;stroke:#00FFFF;stroke-miterlimit:10;" points="688.417,704.935 745.075,701.467 688.417,704.935
		688.417,704.935 	"/>
	<polyline style="fill:#ADA396;" points="644.855,650.163 645.001,678.056 688.417,704.935 644.855,650.163 	"/>
	<polyline style="fill:#E3D1A4;" points="644.855,650.163 670.166,629.281 688.417,704.935 644.855,650.163 	"/>
	<polyline style="fill:#C7AA6B;" points="693.178,611.976 670.166,629.281 676.281,652.99 693.178,611.976 	"/>
	<polyline style="fill:#ECD299;" points="676.281,652.99 688.417,704.935 745.075,701.467 676.281,652.99 	"/>
	<polyline style="fill:#DDBB81;" points="693.178,611.976 676.281,652.99 745.075,701.467 693.178,611.976 	"/>
	<polyline style="fill:#D9993E;" points="729.56,586.217 693.178,611.976 745.075,701.467 729.56,586.217 	"/>
	<polyline style="fill:#E6A342;" points="729.56,586.217 745.075,701.467 779.701,637.553 729.56,586.217 	"/>
	<polyline style="fill:#B56A1E;" points="779.701,637.553 762.831,561.015 729.56,586.217 779.701,637.553 	"/>
	<polyline style="fill:#9E7C52;" points="644.843,545.3 644.793,588 693.515,585.083 644.843,545.3 	"/>
	<polyline style="fill:#B17A3E;" points="644.843,545.3 693.515,585.083 696.793,536.017 644.843,545.3 	"/>
	<polyline style="fill:#C28339;" points="696.793,536.017 693.515,585.083 729.56,586.217 696.793,536.017 	"/>
	<polyline style="fill:#BE8B3E;" points="644.939,499 644.843,545.3 696.793,536.017 644.939,499 	"/>
	<polyline style="fill:#C3730E;" points="762.831,561.015 729.56,586.217 696.793,536.017 762.831,561.015 	"/>
	<polyline style="fill:#CB9A53;" points="644.793,401.5 644.939,499 696.793,536.017 644.793,401.5 	"/>
	<polyline style="fill:#C07D2E;" points="696.793,536.017 762.831,561.015 721.085,506.958 696.793,536.017 	"/>
	<polyline style="fill:#9A6635;" points="762.376,561.333 700.543,479.75 724.284,449.523 762.831,561.015 	"/>
	<polyline style="fill:#BE802F;" points="696.376,536.5 721.085,506.958 675.293,480.25 695.793,536.017 	"/>
	<polyline style="fill:#C07E26;" points="721.876,507.333 675.168,480.208 644.793,401.5 721.085,506.958 	"/>
	<polyline style="fill:#A36423;" points="723.284,453.523 700.918,479.25 644.793,401.5 726.293,449 	"/>
	<polyline style="fill:#F9C76B;" points="722.543,396.09 724.284,450.523 686.793,426.75 722.543,396.09 	"/>
	<polyline style="fill:#BB7E2F;" points="722.543,396.09 686.793,426.75 644.793,401.5 722.543,396.09 	"/>
	<polyline style="fill:#C08731;" points="644.793,401.5 687.668,323.125 722.543,396.09 644.793,401.5 	"/>
	<polyline style="fill:#844708;" points="644.793,401.5 641.232,309.143 687.668,323.125 644.793,401.5 	"/>
	<polyline style="fill:#C28537;" points="641.232,309.143 687.668,323.125 707.094,265.208 641.232,309.143 	"/>
	<polyline style="fill:#CB8323;" points="707.094,265.208 687.668,323.125 722.543,396.09 707.094,265.208 	"/>
	<polyline style="fill:#B38048;" points="785.293,419.5 783.996,432.931 724.284,450.523 785.293,419.5 	"/>
	<polyline style="fill:#EECF92;" points="785.293,419.5 724.284,450.523 723.626,431.167 785.293,419.5 	"/>
	<polyline style="fill:#A25F16;" points="765.032,292.067 722.543,396.09 707.094,265.208 765.032,292.067 	"/>
	<polyline style="fill:#805734;" points="783.996,432.931 724.284,450.523 762.543,560.875 783.996,432.931 	"/>
	<polyline style="fill:#B2813D;" points="779.701,637.553 762.831,561.015 817.715,510.586 779.701,637.553 	"/>
	<polyline style="fill:#805420;" points="785.293,419.5 762.585,561.292 817.715,510.586 785.293,419.5 	"/>
	<polyline style="fill:#674524;" points="785.293,419.5 817.715,510.586 841.876,419.667 785.293,419.5 	"/>
	<polyline style="fill:#9A6A31;" points="761.793,375 802.743,353.5 841.876,419.667 761.793,375 	"/>
	<polyline style="fill:#996D36;" points="765.032,292.067 722.543,396.09 802.743,353.5 765.032,292.067 	"/>
	<polyline style="fill:#BCAE90;" points="688.417,704.935 644.918,706.833 644.285,782.569 688.417,704.935 	"/>
	<polyline style="fill:#9F9381;" points="644.285,782.569 664.198,827.946 693.366,781.762 644.285,782.569 	"/>
	<polyline style="fill:#BAAA84;" points="688.417,704.935 644.285,782.569 693.366,781.762 688.417,704.935 	"/>
	<polyline style="fill:#E5D3C0;" points="688.417,704.935 693.366,781.762 735.138,750.708 688.417,704.935 	"/>
	<polyline style="fill:#BB9B67;" points="688.417,704.935 737.376,729.375 735.138,750.708 688.417,704.935 	"/>
	<polyline style="fill:#92500F;" points="641.232,239.763 713.702,175.892 707.094,265.208 641.232,239.763 	"/>
	<polyline style="fill:#7C3E04;" points="713.702,175.892 707.094,265.208 765.032,292.067 713.702,175.892 	"/>
	<polyline style="fill:#120901;" points="676.326,141.975 641.232,239.763 644.946,125.319 676.326,141.975 	"/>
	<polyline style="fill:#3E3634;" points="717.774,121.019 644.946,125.319 765.543,38 717.774,121.019 	"/>
	<path style="fill:none;stroke:#00FFFF;stroke-miterlimit:10;" d="M713.702,175.892"/>
	<polyline style="fill:#7F3D02;" points="709.952,175.861 847.293,153 730.88,217.917 709.952,175.861 	"/>
	<polyline style="fill:#817F8E;" points="768.543,46 761.943,72.4 804.543,32 776.543,42 	"/>
	<polyline style="fill:#382F29;" points="761.943,72.4 717.774,121.019 790.757,98.857 761.943,72.4 	"/>
	<polyline style="fill:#413D4C;" points="761.943,72.4 790.757,98.857 837.543,44 761.943,72.4 	"/>
	<path style="fill:none;stroke:#00FFFF;stroke-miterlimit:10;" d="M790.757,98.857"/>
	<polyline style="fill:#887364;" points="790.757,98.857 844.043,154 933.543,111 790.757,98.857 	"/>
	<polyline style="fill:#B05400;" points="844.043,154 765.032,292.067 731.564,217.167 	"/>
	<polyline style="fill:#A05E0F;" points="765.032,292.067 802.743,353.5 871.143,324.8 765.032,292.067 	"/>
	<polyline style="fill:#945825;" points="844.043,154 765.032,292.067 871.143,324.8 844.043,154 	"/>
	<polyline style="fill:#774615;" points="844.043,154 872.418,219.75 890.543,158 844.043,154 	"/>
	<polyline style="fill:#524A48;" points="844.043,154 907.543,125 966.543,170 844.043,154 	"/>
	<polyline style="fill:#9E7442;" points="890.543,158 872.418,219.75 1002.543,202 906.543,161 	"/>
	<polyline style="fill:#AF6C29;" points="844.043,154 871.143,324.8 951.179,361.039 872.418,219.75 	"/>
	<polyline style="fill:#663B1F;" points="872.418,219.75 990.043,217 930.293,263.5 872.418,219.75 	"/>
	<polyline style="fill:#6A2E00;" points="872.418,219.75 951.179,361.039 957.543,285.333 872.418,219.75 	"/>
	<polyline style="fill:#4C3B39;" points="930.723,263.5 966.543,235.554 1014.543,265 930.723,263.5 	"/>
	<polyline style="fill:#592300;" points="930.626,264 983.543,277.25 957.543,285.333 930.626,264 	"/>
	<polyline style="fill:#5A2400;" points="983.543,277.25 957.543,285.333 951.179,361.039 974.893,299.25 	"/>
	<polyline style="fill:#292620;" points="983.543,277.25 1028.543,290 974.893,299.25 983.543,277.25 	"/>
	<polyline style="fill:#131210;" points="974.893,299.25 1021.543,333 968.543,332.438 974.893,299.25 	"/>
	<polyline style="fill:#351300;" points="871.143,324.8 802.743,353.5 951.179,361.039 871.143,324.8 	"/>
	<polyline style="fill:#A69C91;" points="644.946,125.319 641.543,34 670.543,98 644.946,125.319 	"/>
	<polyline style="fill:#57525A;" points="671.043,72.5 670.543,98 746.543,38 671.043,72.5 	"/>
	<polyline style="fill:#A7A9B9;" points="671.043,72.5 691.543,35 689.543,61 671.043,72.5 	"/>
	<polyline style="fill:#5C3416;" points="676.326,141.975 717.774,121.019 641.232,239.763 676.326,141.975 	"/>
	<polyline style="fill:#5D2901;" points="861.793,365.25 802.743,353.5 841.876,419.667 861.793,365.25 	"/>
	<polyline style="fill:#3D1703;" points="907.543,405.98 841.876,419.667 817.715,510.586 907.543,405.98 	"/>
	<polyline style="fill:#DB9838;" points="907.543,405.98 951.179,361.039 983.255,460.052 907.543,405.98 	"/>
	<polyline style="fill:#CF8424;" points="907.543,405.98 870.87,474.021 983.255,460.052 907.543,405.98 	"/>
	<polyline style="fill:#BC7A2D;" points="870.87,474.021 817.715,510.586 851.818,572.658 870.87,474.021 	"/>
	<polyline style="fill:#CC8B2D;" points="817.715,510.586 779.701,637.553 851.818,572.658 817.715,510.586 	"/>
	<polyline style="fill:#894D01;" points="870.87,474.021 851.818,572.658 932.095,570.967 870.87,474.021 	"/>
	<polyline style="fill:#823E03;" points="870.87,474.021 911.241,461.463 932.095,570.967 870.87,474.021 	"/>
	<polyline style="fill:#B26C1A;" points="983.255,460.052 911.241,461.463 932.095,570.967 983.255,460.052 	"/>
	<polyline style="fill:#FDD264;" points="983.255,460.052 932.095,570.967 1014.346,648.854 983.255,460.052 	"/>
	<polyline style="fill:#E2B873;" points="851.818,572.658 779.701,637.553 870.743,756.2 851.818,572.658 	"/>
	<polyline style="fill:#BB7A1F;" points="932.095,570.967 851.818,572.658 936.543,669.75 932.095,570.967 	"/>
	<polyline style="fill:#B88537;" points="851.818,572.658 870.743,756.2 936.543,669.75 851.818,572.658 	"/>
	<polyline style="fill:#E5B354;" points="932.095,570.967 979.489,771.544 968.543,631 932.095,570.967 	"/>
	<polyline style="fill:#BC8235;" points="937.543,668.75 979.489,771.544 904.606,711.71 936.543,668.75 	"/>
	<polyline style="fill:#9A630D;" points="904.606,711.71 940.257,738.793 862.876,864 870.743,756.2 904.606,711.71 	"/>
	<polyline style="fill:#1B0901;" points="745.075,701.467 737.376,729.375 783.343,734.3 745.075,701.467 	"/>
	<path style="fill:none;stroke:#00FFFF;stroke-miterlimit:10;" d="M779.701,637.553"/>
	<polyline style="fill:#271705;" points="745.075,701.467 779.701,637.553 795.543,696.8 745.075,701.467 	"/>
	<polyline style="fill:#8C7250;" points="795.543,696.8 745.075,701.467 783.343,734.3 795.543,696.8 	"/>
	<polyline style="fill:#D7A767;" points="779.701,637.553 815.432,768.222 870.743,756.2 779.701,637.553 	"/>
	<polyline style="fill:#BB945C;" points="815.432,768.222 870.743,756.2 862.876,864 815.432,768.222 	"/>
	<polyline style="fill:#66441E;" points="795.543,696.8 815.432,768.222 783.343,734.3 795.543,696.8 	"/>
	<polyline style="fill:#613B16;" points="735.138,750.708 693.366,781.762 738.599,794.667 735.138,750.708 	"/>
	<path style="fill:none;stroke:#00FFFF;stroke-miterlimit:10;" d="M737.376,729.375"/>
	<polyline style="fill:#311502;" points="735.138,750.708 737.376,729.375 783.343,734.3 735.138,750.708 	"/>
	<polyline style="fill:#947743;" points="735.138,750.708 783.343,734.3 815.432,768.222 738.599,794.667 	"/>
	<polyline style="fill:#4B3118;" points="815.432,768.222 862.876,864 774.043,860.5 815.432,768.222 	"/>
	<polyline style="fill:#C7A168;" points="815.432,768.222 738.599,794.667 774.043,860.5 815.432,768.222 	"/>
	<polyline style="fill:#674819;" points="738.599,794.667 693.366,781.762 709.043,857.5 738.599,794.667 	"/>
	<polyline style="fill:#977742;" points="738.599,794.667 774.043,860.5 743.876,912.667 738.599,794.667 	"/>
	<polyline style="fill:#9E7F4F;" points="738.599,794.667 743.876,912.667 696.543,885.212 738.599,794.667 	"/>
	<polyline style="fill:#644528;" points="693.366,781.762 709.043,857.5 684.043,912.125 693.366,781.762 	"/>
	<polyline style="fill:#3C2613;" points="693.366,781.762 681.043,833.5 664.198,827.946 693.366,781.762 	"/>
	<polyline style="fill:#84602A;" points="644.285,782.569 664.198,827.946 643.21,923.5 644.285,782.569 	"/>
	<polyline style="fill:#7D5D34;" points="664.198,827.946 681.043,833.5 684.043,912.125 664.198,827.946 	"/>
	<polyline style="fill:#674E34;" points="664.198,827.946 684.043,912.125 643.21,923.5 664.198,827.946 	"/>
	<polyline style="fill:#3E2C27;" points="968.543,332.438 951.179,361.039 1043.543,360 968.543,332.438 	"/>
	<polyline style="fill:#634D46;" points="951.179,361.039 1016.543,371.5 984.793,418.5 951.179,361.039 	"/>
	<polyline style="fill:#9C9BA4;" points="1005.043,389.75 984.793,418.5 1028.543,455 1005.043,389.75 	"/>
	<path style="fill:none;stroke:#00FFFF;stroke-miterlimit:10;" d="M984.793,418.5"/>
	<polyline style="fill:#B3856C;" points="983.255,460.052 984.793,418.5 1046.543,494 983.255,460.052 	"/>
	<polyline style="fill:#906E4E;" points="983.255,460.052 1004.243,514.167 1053.543,518 983.255,460.052 	"/>
	<path style="fill:none;stroke:#00FFFF;stroke-miterlimit:10;" d="M932.095,570.967"/>
	<polyline style="fill:#DC9F48;" points="1014.346,648.854 932.095,570.967 968.543,631 1014.346,648.854 	"/>
	<polyline style="fill:#C07E22;" points="968.543,631 1014.346,648.854 979.489,771.544 968.543,631 	"/>
	<polyline style="fill:#C88954;" points="1004.243,514.167 1054.969,593.391 1008.793,581.25 1004.243,514.167 	"/>
	<polyline style="fill:#866B5B;" points="1004.243,514.167 1057.543,540 1025.543,534 1004.243,514.167 	"/>
	<polyline style="fill:#C1803B;" points="1008.793,581.25 1054.969,593.391 1014.346,648.854 1009.043,582.25 	"/>
	<polyline style="fill:#A3641A;" points="1084.391,735.057 1014.346,648.854 1054.969,593.391 1084.391,735.057 	"/>
	<polyline style="fill:#875015;" points="1014.346,648.854 1084.391,735.057 979.489,771.544 1014.346,648.854 	"/>
	<polyline style="fill:#B58550;" points="1084.391,735.057 979.489,771.544 1054.173,813.525 1084.391,735.057 	"/>
	<polyline style="fill:#5E432A;" points="979.489,771.544 1027.173,806.525 994.935,817.075 979.489,771.544 	"/>
	<polyline style="fill:#4F3320;" points="1027.173,806.525 1031.043,839 1054.173,813.525 1027.173,806.525 	"/>
	<polyline style="fill:#805135;" points="1084.391,735.057 1081.876,871.333 1054.173,813.525 1084.391,735.057 	"/>
	<polyline style="fill:#473222;" points="717.774,121.019 644.946,125.319 676.326,141.975 717.774,121.019 	"/>
	<polygon style="fill:#463A33;" points="974.893,299.25 951.179,361.039 968.543,332.438 	"/>
	<polygon style="fill:#7D551D;" points="951.179,361.039 983.255,460.052 984.793,418.5 	"/>
	<polygon style="fill:#F0B66C;" points="983.255,460.052 1004.243,514.167 1014.346,648.854 	"/>
	<polyline style="fill:#5E1C00;" points="841.876,419.667 951.179,361.039 907.543,405.98 841.876,419.667 	"/>
	<polyline style="fill:#833801;" points="951.179,361.039 841.876,419.667 861.793,365.25 	"/>
	<polyline style="fill:#DC9F48;" points="932.095,570.967 936.543,667.5 979.489,771.544 932.095,570.967 	"/>
	<polyline style="fill:#74401B;" points="907.543,405.98 871.043,474.021 817.715,510.586 907.543,405.98 	"/>
	<polyline style="fill:#160D03;" points="745.075,701.467 737.376,729.375 688.417,704.935 745.075,701.467 	"/>
	<polyline style="fill:#5D482D;" points="693.366,781.762 681.043,834.5 684.043,912.125 693.366,781.762 	"/>
	<polyline style="fill:#0E0A07;" points="722.543,396.09 723.543,431.25 756.043,424.75 722.543,396.09 	"/>
	<polyline style="fill:#321F12;" points="722.543,396.09 756.043,424.75 789.523,410 722.543,396.09 	"/>
	<polyline style="fill:#321E05;" points="789.523,410 754.015,395.333 722.543,396.09 789.523,410 	"/>
	<polyline style="fill:#846031;" points="722.543,396.09 761.793,375 796.523,393.781 722.543,396.09 	"/>
	<polyline style="fill:#8F5B2C;" points="754.015,395.333 789.523,410 796.523,393.781 754.015,395.333 	"/>
	<polyline style="fill:#BA9957;" points="789.523,410 786.043,419.5 755.043,425.125 789.523,410 	"/>
	<polyline style="fill:#B56916;" points="790.757,98.857 844.043,154 713.702,175.892 790.757,98.857 	"/>
	<polyline style="fill:#572500;" points="717.774,121.019 713.702,175.892 641.232,239.763 717.774,121.019 	"/>
	<polyline style="fill:#C96F0E;" points="790.757,98.857 717.774,121.019 713.702,175.892 790.757,98.857 	"/>
	<polyline style="fill:#4F4242;" points="790.757,98.857 897.611,91.75 818.088,77.5 790.757,98.857 	"/>
	<polyline style="fill:#5E1C00;" points="951.361,361.039 802.743,353.5 861.793,365.25 951.543,361.039 	"/>
	<polyline style="fill:#9C8169;" points="1054.173,813.525 979.489,771.544 1027.51,806.525 1054.173,813.525 	"/>
	<polyline style="fill:#764C1C;" points="940.257,738.793 979.489,771.544 1004.243,857.5 940.257,738.793 	"/>
	<polyline style="fill:#77582A;" points="940.257,738.793 911.241,864 884.115,828.835 940.257,738.793 	"/>
	<polyline style="fill:#4B3A2A;" points="940.257,738.793 947.248,817.075 970.495,794.892 940.257,738.793 	"/>
	<polyline style="fill:#9D6230;" points="796.523,393.781 785.293,419.5 841.876,419.667 796.523,393.781 	"/>
</svg>
